<?xml version="1.0" standalone="no"?>
<!DOCTYPE svg PUBLIC "-//W3C//DTD SVG 1.1//EN" "http://www.w3.org/Graphics/SVG/1.1/DTD/svg11.dtd" >
<!--
2013-9-30: Created.
-->
<svg>
<metadata>
Created by iconfont
</metadata>
<defs>

<font id="iconfont" horiz-adv-x="1024" >
  <font-face
    font-family="iconfont"
    font-weight="500"
    font-stretch="normal"
    units-per-em="1024"
    ascent="896"
    descent="-128"
  />
    <missing-glyph />
    
    <glyph glyph-name="link" unicode="&#58981;" d="M704.32 790.592L519.872 606.144C473.152 559.488 466.176 487.808 497.856 430.848L465.152 398.144c-56.96 31.744-128.64 24.704-175.36-21.952l-184.384-184.384c-56.896-56.896-54.912-150.912 4.288-210.112 59.136-59.136 153.216-60.992 210.112-4.224l184.448 184.448c46.592 46.656 53.568 118.464 21.952 175.296l32.704 32.704c56.896-31.68 128.64-24.64 175.232 21.952l184.448 184.384c56.896 56.896 54.976 150.976-4.16 210.112C855.232 845.504 761.216 847.424 704.32 790.592zM407.872 190.59199999999998L286.08 68.79999999999995c-37.504-37.504-87.936-47.872-112.512-23.232-24.704 24.704-14.208 75.136 23.296 112.64l121.728 121.664c22.336 22.336 49.152 34.944 72.384 36.416C386.752 301.696 390.144 285.312 401.728 273.664c11.52-11.52 27.904-14.976 42.56-10.688C442.816 239.74400000000003 430.144 212.86400000000003 407.872 190.59199999999998zM824.704 607.36l-121.664-121.664c-21.248-21.312-46.72-33.856-69.12-36.224 6.464 15.616 3.264 34.304-9.408 46.976C611.776 509.184 593.216 512.192 577.472 505.728 579.968 528.256 592.384 553.664 613.76 574.976l121.664 121.728c37.568 37.504 87.936 47.936 112.576 23.296C872.768 695.36 862.272 644.928 824.704 607.36z"  horiz-adv-x="1024" />

    
    <glyph glyph-name="voice" unicode="&#59397;" d="M593.024 661.504l-46.165333-46.229333c0.106667-0.085333 0.149333-0.149333 0.277333-0.234667 127.552-127.658667 127.552-334.677333 0-462.336l46.122667-46.250667c153.045333 153.194667 153.045333 401.621333 0 554.816C593.173333 661.333333 593.130667 661.44 593.024 661.504zM500.885333 568.810667c-0.042667 0.085333-0.128 0.149333-0.234667 0.213333l-46.165333-46.229333c0.042667-0.085333 0.128-0.149333 0.234667-0.256 76.48-76.565333 76.48-200.789333 0-277.397333l46.144-46.229333C603.008 300.99199999999996 603.008 466.666667 500.885333 568.810667zM408.32 476.565333l-92.394667-92.458667 92.629333-92.714667c51.008 51.114667 51.008 133.888 0 184.938667C408.469333 476.416 408.362667 476.48 408.32 476.565333zM512 896C229.696 896 0 666.304 0 384c0-282.282667 229.696-512 512-512 282.282667 0 512 229.717333 512 512C1024 666.304 794.282667 896 512 896zM512-85.29066699999998C253.226667-85.29066699999998 42.688 125.22666700000002 42.688 384S253.226667 853.312 512 853.312 981.290667 642.773333 981.290667 384 770.773333-85.29066699999998 512-85.29066699999998z"  horiz-adv-x="1024" />

    
    <glyph glyph-name="setting" unicode="&#58916;" d="M-48.606208 12.183551999999963M1041.337344 12.183551999999963M45.560832 43.32748800000002M403.534848 385.104896c0 36.704256 12.394496 67.21024 37.6576 92.474368 25.264128 25.264128 55.771136 37.658624 92.475392 37.658624 36.703232 0 67.211264-12.394496 92.475392-37.658624 25.265152-25.264128 37.6576-55.770112 37.6576-92.474368 0-36.70528-12.393472-67.689472-37.6576-92.952576-25.264128-25.263104-55.77216-37.656576-92.475392-37.656576-36.704256 0-67.331072 12.274688-92.475392 37.656576C415.809536 317.773824 403.534848 348.8768 403.534848 385.104896zM219.547648 300.256256c7.626752-27.169792 19.067904-53.865472 32.89088-78.651392l-85.801984-105.347072 97.241088-97.241088 105.335808 85.801984c24.787968-13.824 51.958784-25.264128 79.128576-33.368064l14.30016-134.421504 140.142592 0 14.30016 134.421504c27.170816 8.103936 52.912128 19.544064 79.127552 33.368064l104.869888-85.801984 98.195456 97.241088-86.278144 105.347072c13.346816 24.78592 25.263104 51.480576 33.364992 78.651392l134.424576 14.777344L980.789248 455.176192l-134.424576 14.30016c-8.101888 27.170816-20.018176 52.434944-33.364992 78.651392l86.278144 105.346048-98.195456 98.195456-104.869888-86.278144c-26.692608 13.34784-51.956736 25.264128-79.127552 33.36704L602.785792 833.181696 462.6432 833.181696l-14.30016-134.423552c-28.12416-8.102912-54.340608-20.020224-79.128576-33.36704l-105.335808 86.278144-97.241088-98.195456 85.801984-105.346048c-13.34784-26.217472-24.787968-51.480576-32.89088-78.651392L84.647936 455.176192l0-140.142592L219.547648 300.256256zM1021.78304 43.32748800000002"  horiz-adv-x="1064" />

    
    <glyph glyph-name="del" unicode="&#58887;" d="M793.644053 711.173504L669.519058 711.173504l-75.383898 75.724659L427.748642 786.898163l-75.383898-75.724659L228.238726 711.173504c-10.099009-1.023306-19.962657-14.254655-18.939351-26.786063l0-47.915289 602.727351 0L812.026726 684.387441C812.025703 694.748417 808.075741 710.150198 793.644053 711.173504zM443.366342 749.035834l135.176702 0 37.691437-37.862329L405.673881 711.173504 443.366342 749.035834zM247.160681 43.59617000000003c0-10.361999 6.708795-10.874675 18.769482-10.874675l490.021429 0c11.1919 0 19.235087 0.512676 19.235087 10.874675L775.186679 598.609823l-528.025998 0L247.160681 43.59617000000003zM549.03601 485.022835l36.839023 0 0-300.852022-36.839023 0L549.03601 485.022835zM435.449022 485.022835l37.862329 0 0-300.852022-37.862329 0L435.449022 485.022835z"  horiz-adv-x="1024" />

    
    <glyph glyph-name="QRcode" unicode="&#58899;" d="M568.889116 896l0-455.110884 455.108837 0L1023.997953 896 568.889116 896zM967.109349 497.777721l-341.333674 0L625.775674 839.111395l341.333674 0L967.109349 497.777721zM113.778233 554.6673490000001l227.555442 0L341.333674 782.222791 113.778233 782.222791 113.778233 554.6673490000001zM0.001023-127.99897699999997l455.110884 0L455.111907 327.111907 0.001023 327.111907 0.001023-127.99897699999997zM56.889628 270.22227899999996l341.333674 0 0-341.333674L56.889628-71.11139500000002 56.889628 270.22227899999996zM910.220744 782.222791L682.665302 782.222791l0-227.555442 227.555442 0L910.220744 782.222791zM0.001023 440.889116l455.110884 0L455.111907 896 0.001023 896 0.001023 440.889116zM56.889628 839.111395l341.333674 0 0-341.333674L56.889628 497.777721 56.889628 839.111395zM910.220744-127.99897699999997l113.778233 0L1023.998977 99.556465 910.220744 99.556465 910.220744-127.99897699999997zM910.220744 213.334698l113.778233 0L1023.998977 327.111907 910.220744 327.111907 910.220744 213.334698zM113.778233-14.220743999999968l227.555442 0L341.333674 213.334698 113.778233 213.334698 113.778233-14.220743999999968zM739.553907 327.111907L568.889116 327.111907l0-170.666837 170.664791 0 0-56.888605 113.778233 0L853.332139 213.334698 739.553907 213.334698 739.553907 327.111907zM568.889116-127.99897699999997L796.442512-127.99897699999997 796.442512-14.220743999999968 568.889116-14.220743999999968 568.889116-127.99897699999997z"  horiz-adv-x="1024" />

    
    <glyph glyph-name="chart" unicode="&#58900;" d="M479.651244 766.78201C250.383584 766.78201 64.523549 580.9240219999999 64.523549 351.65226800000005c0-229.265614 185.860035-415.127695 415.127695-415.127695 229.27073 0 415.127695 185.862082 415.127695 415.127695L479.651244 351.65226800000005 479.651244 766.78201zM544.345686 831.476451l0-415.129742 415.129742 0C959.475428 645.618463 773.616416 831.476451 544.345686 831.476451z"  horiz-adv-x="1024" />

    
    <glyph glyph-name="new-create" unicode="&#58918;" d="M980.700543 427.545107H557.401933V850.843717a43.350032 43.350032 0 0 1-86.700063 0v-423.29861H47.396035a43.350032 43.350032 0 0 1 0-86.700064h423.305835v-423.31306a43.350032 43.350032 0 0 1 86.700063 0v423.31306h423.29861a43.350032 43.350032 0 0 1 0 86.700064z"  horiz-adv-x="1024" />

    
    <glyph glyph-name="add" unicode="&#59024;" d="M768 405.333333H533.333333V640c0 12.8-8.533333 21.333333-21.333333 21.333333s-21.333333-8.533333-21.333333-21.333333v-234.666667H256c-12.8 0-21.333333-8.533333-21.333333-21.333333s8.533333-21.333333 21.333333-21.333333h234.666667v-234.666667c0-12.8 8.533333-21.333333 21.333333-21.333333s21.333333 8.533333 21.333333 21.333333V362.66666699999996h234.666667c12.8 0 21.333333 8.533333 21.333333 21.333333s-8.533333 21.333333-21.333333 21.333333zM512 896C228.266667 896 0 667.733333 0 384s228.266667-512 512-512 512 228.266667 512 512S795.733333 896 512 896z m0-981.333333C253.866667-85.33333300000004 42.666667 125.866667 42.666667 384S253.866667 853.333333 512 853.333333s469.333333-211.2 469.333333-469.333333-211.2-469.333333-469.333333-469.333333z"  horiz-adv-x="1024" />

    
    <glyph glyph-name="switch-open" unicode="&#58880;" d="M1021.76 383.8760000000003c-1.1368683772161603e-13 169.952-137.7700000000002 307.72699999999986-307.7240000000002 307.72699999999975l-404.235-3.126388037344441e-13c-169.955-1.1368683772161603e-13-307.72399999999993-137.7750000000002-307.72399999999976-307.7270000000002s137.77000000000015-307.7239999999999 307.72400000000005-307.72399999999993l404.235 3.126388037344441e-13c169.955 1.1368683772161603e-13 307.72399999999993 137.77200000000022 307.72399999999993 307.72400000000005zM993.6549999999997 383.22900000000027c1.1368683772161603e-13-154.236-125.0299999999999-279.26700000000005-279.2689999999997-279.26800000000014-154.23-8.526512829121202e-14-279.26400000000007 125.02999999999986-279.26400000000024 279.26699999999977-8.526512829121202e-14 154.24 125.0349999999998 279.26900000000023 279.26299999999975 279.26900000000023 154.238 8.526512829121202e-14 279.2690000000001-125.03099999999984 279.26900000000023-279.26899999999983z"  horiz-adv-x="1024" />

    
    <glyph glyph-name="view" unicode="&#58890;" d="M512 640C264.58 640 64 384 64 384s200.58-256 448-256 448 256 448 256-200.58 256-448 256z m0-448c-106 0-192 86-192 192s86 192 192 192 192-86 192-192-86-192-192-192zM512 384m-160 0a160 160 0 1 1 320 0 160 160 0 1 1-320 0Z"  horiz-adv-x="1024" />

    
    <glyph glyph-name="new-item" unicode="&#59284;" d="M802.909091 407.272727H558.545455V651.636364a34.909091 34.909091 0 1 1-69.818182 0V407.272727H244.363636a34.909091 34.909091 0 1 1 0-69.818182H488.727273v-244.363636a34.909091 34.909091 0 1 1 69.818182 0V337.45454500000005h244.363636a34.909091 34.909091 0 1 1 0 69.818182"  horiz-adv-x="1024" />

    
    <glyph glyph-name="emoji" unicode="&#59149;" d="M512 896C229.23 896 0 666.77 0 384s229.23-512 512-512 512 229.23 512 512S794.769 896 512 896z m0-990.192c-264.099 0-478.193 214.095-478.193 478.193S247.9 862.193 512 862.193 990.193 648.1 990.193 384 776.1-94.19200000000001 512-94.19200000000001z m-329.021 444.61c0-382.29 621.499-393.53 636.82 0H182.98z m71.462 208.42c0-19.97 6.544-39.82 17.785-53.941 11.24-14.123 27.04-22.345 42.938-22.345 15.896 0 31.695 8.221 42.936 22.345 11.242 14.121 17.785 33.972 17.785 53.94 0 19.97-6.543 39.825-17.785 53.947-11.241 14.118-27.04 22.34-42.936 22.34-15.899 0-31.698-8.222-42.938-22.34-11.241-14.123-17.785-33.977-17.785-53.947z m378.135 0c0-19.97 6.544-39.82 17.785-53.941 11.24-14.123 27.04-22.345 42.939-22.345 15.895 0 31.694 8.221 42.935 22.345 11.242 14.121 17.785 33.972 17.785 53.94 0 19.97-6.543 39.825-17.785 53.947-11.241 14.118-27.039 22.34-42.935 22.34-15.9 0-31.699-8.222-42.939-22.34-11.241-14.123-17.785-33.977-17.785-53.947z"  horiz-adv-x="1025" />

    
    <glyph glyph-name="edit" unicode="&#58889;" d="M631.5 680.2L213.9 262.6c-12.1-12.1-12.1-31.8 0-44l131.9-131.9c12.1-12.1 31.8-12.1 44 0l417.6 417.6c12.1 12.1 12.1 31.8 0 44L675.5 680.2c-12.2 12.1-31.8 12.1-44 0z m153.9 109.9l131.9-131.9c12.1-12.1 12.1-31.8 0-44l-44-44c-12.1-12.1-31.8-12.1-44 0l-131.8 132c-12.1 12.1-12.1 31.8 0 44l44 44c12 12 31.7 12 43.9-0.1zM194.6 207.89999999999998L335 67.39999999999998c8.1-8.1 4.9-22-6-25.7L116.9-30c-12.2-4.1-23.8 7.5-19.7 19.7l71.7 212.1c3.6 11 17.5 14.2 25.7 6.1z"  horiz-adv-x="1024" />

    
    <glyph glyph-name="switch-close" unicode="&#58884;" d="M309.76 76.28800000000001h404.48c169.984 0 307.712 137.728 307.712 307.712S884.224 691.712 714.24 691.712H309.76C139.776 691.712 2.048 553.9839999999999 2.048 384S139.776 76.28800000000001 309.76 76.28800000000001z m-0.512 586.24c154.112 0 279.04-124.928 279.04-279.04s-124.928-279.04-279.04-279.04-279.04 124.928-279.04 279.04 124.928 279.04 279.04 279.04z"  horiz-adv-x="1024" />

    
    <glyph glyph-name="arrow-down" unicode="&#58991;" d="M772.92959 137.52050599999995c-13.546965-13.546965-31.910628-26.190798-49.37116-22.277231-17.460532-2.859915-33.867411 10.68705-47.414376 22.277231l-419.504336 421.46112c-21.3741 21.3741-21.3741 56.144642 0 77.518741 21.3741 21.3741 56.144642 21.3741 77.518742 0l390.303101-400.990151 391.356754 400.990151c21.3741 21.3741 56.144642 21.3741 77.518742 0 21.3741-21.3741 21.3741-56.144642 0-77.518741l-420.407467-421.46112z m0 0"  horiz-adv-x="1450" />

    
    <glyph glyph-name="sort" unicode="&#58944;" d="M922.576704 571.135318a26.848683 26.848683 0 0 1-13.424341 27.140516 39.98119 39.98119 0 0 1-53.113698 0l-152.628924-155.547259a42.024025 42.024025 0 0 1 0-53.989199 39.397523 39.397523 0 0 1 53.113698 0l93.094889 94.554056v-574.912008a33.26902 33.26902 0 1 1 66.246206 0z m139.204583-656.041723V571.135318a33.26902 33.26902 0 1 0 66.53804 0V2.935479999999984l92.803055 94.84589a39.98119 39.98119 0 0 0 53.113698 0 42.315858 42.315858 0 0 0 0-54.281032l-152.628924-155.547259a39.98119 39.98119 0 0 0-53.113698 0c0 7.004004-6.712171 20.428345-6.712171 27.140516zM0.09099 862.093324A31.518019 31.518019 0 0 0 33.360009 895.946011h1114.803996a31.809852 31.809852 0 0 0 33.26902-33.852687 31.809852 31.809852 0 0 0-33.26902-33.852687H33.360009A35.895521 35.895521 0 0 0 0.09099 862.093324z m0-473.353948a31.518019 31.518019 0 0 0 33.269019 33.560853h517.420808a33.852687 33.852687 0 0 0 0-67.41354H33.360009A35.895521 35.895521 0 0 0 0.09099 388.739376z m0-473.645781a31.518019 31.518019 0 0 0 33.269019 33.852687h683.474073a33.852687 33.852687 0 0 0 0-67.705374H33.360009C19.935668-125.47126300000002 0.09099-105.04291699999999 0.09099-84.90640499999995z"  horiz-adv-x="1287" />

    
    <glyph glyph-name="arrow-up" unicode="&#59049;" d="M451.47303655 642.70395664c13.66737884 13.66737884 32.21596439 26.35851634 49.78830863 22.45355098 17.57234421 2.92872403 34.1684471-10.73865482 47.83582596-22.45355095L971.8096739 218.03897118999998c21.4773096-21.4773096 21.4773096-56.62199807 0-78.09930763s-56.62199807-21.4773096-78.09930767 0l-393.4252624 404.16391718L105.88360012 139.93966355999999c-21.4773096-21.4773096-56.62199807-21.4773096-78.09930765 0s-21.4773096 56.62199807 0 78.09930763L451.47303655 642.70395664z"  horiz-adv-x="1024" />

    
    <glyph glyph-name="audi_btn_man" unicode="&#58923;" d="M512 384m-465.454545 0a465.454545 465.454545 0 1 1 930.90909 0 465.454545 465.454545 0 1 1-930.90909 0ZM304.407273 375.063273a25.320727 25.320727 0 0 1 25.6 25.367272L325.818182 523.636364l93.090909-93.090909a36.677818 36.677818 0 1 1 46.545454 46.545454L372.363636 570.181818h139.636364c13.963636 0 12.101818 7.168 12.101818 21.178182A25.6 25.6 0 0 1 498.501818 616.727273H304.407273a25.181091 25.181091 0 0 1-25.134546-25.367273v-190.836364a25.181091 25.181091 0 0 1 25.134546-25.460363z"  horiz-adv-x="1024" />

    
    <glyph glyph-name="chan_pop_doubt" unicode="&#58924;" d="M512 896a512 512 0 1 1 512-512 512 512 0 0 1-512 512z m-3.2-870.4a74.048 74.048 0 1 0 75.52 74.048A74.88 74.88 0 0 0 508.8 25.6z m202.88 418.88a476.672 476.672 0 0 0-94.72-95.104 171.328 171.328 0 0 1-46.08-50.112 160 160 0 0 1-8.32-67.84H455.04c-0.64 15.424-0.64 24.896-0.64 28.288A187.648 187.648 0 0 0 471.68 345.6a260.672 260.672 0 0 0 69.12 75.84 552.832 552.832 0 0 1 62.08 55.168 74.56 74.56 0 0 1 15.36 45.44 75.968 75.968 0 0 1-27.52 59.072 108.8 108.8 0 0 1-74.88 24.64 113.536 113.536 0 0 1-75.52-25.6 156.096 156.096 0 0 1-41.6-78.016c-3.84-22.016-110.08-31.36-108.8 13.248a184.704 184.704 0 0 0 64.64 128 228.416 228.416 0 0 0 156.8 52.608 235.456 235.456 0 0 0 161.92-53.312 160.704 160.704 0 0 0 60.16-124.032 136.32 136.32 0 0 0-21.76-74.176z m0 0"  horiz-adv-x="1024" />

    
    <glyph glyph-name="audi_btn_woman" unicode="&#58927;" d="M512 384m-465.454545 0a465.454545 465.454545 0 1 1 930.90909 0 465.454545 465.454545 0 1 1-930.90909 0ZM719.592727 375.063273a25.320727 25.320727 0 0 0-25.6 25.367272L698.181818 523.636364l-93.090909-93.090909a36.677818 36.677818 0 1 0-46.545454 46.545454l93.090909 93.090909h-139.636364c-13.963636 0-12.101818 7.168-12.101818 21.178182A25.6 25.6 0 0 0 525.498182 616.727273h194.094545a25.181091 25.181091 0 0 0 25.134546-25.367273v-190.836364a25.181091 25.181091 0 0 0-25.134546-25.460363z"  horiz-adv-x="1024" />

    
    <glyph glyph-name="chan_pop_form1" unicode="&#58913;" d="M73.142857 896h638.025143L950.857143 673.901714V-128H73.142857V896zM731.428571 896l219.428572-219.428571H731.428571V896zM430.829714 230.966857l72.283429 100.370286q4.132571 5.888 13.750857 21.613714 6.473143-10.422857 12.580571-19.254857l72.484572-102.729143H649.142857l-109.019428 152.228572 101.156571 135.734857H599.771429L541.805714 442.514286a375.789714 375.789714 0 0 1-22.784-32.804572 421.266286 421.266286 0 0 1-23.186285 35.364572l-52.242286 73.856h-45.366857l98.212571-137.892572-111.378286-150.070857h45.714286z"  horiz-adv-x="1024" />

    
    <glyph glyph-name="topdav_lower" unicode="&#58922;" d="M0 896l819.2-776.192L1638.4 896v-248.832L819.2-128 0 648.192V896z"  horiz-adv-x="1638" />

    
    <glyph glyph-name="topdav_sea" unicode="&#58930;" d="M1005.560386-107.405348a62.295625 62.295625 0 0 0-89.989676 0l-199.294832 198.591288a448.157538 448.157538 0 0 0-572.17316 25.583419 449.436709 449.436709 0 1 0 623.595832 647.132577 440.034802 440.034802 0 0 0 38.375128-583.046113l199.294832-198.591288a61.783956 61.783956 0 0 0 0-89.541966zM703.42021 635.856925a321.775449 321.775449 0 1 1 0-378.05897 319.217107 319.217107 0 0 1 0 378.05897z m0 0"  horiz-adv-x="1025" />

    
    <glyph glyph-name="topdav_news" unicode="&#59058;" d="M1046.958487-127.96050600000001H123.236119A120.237496 120.237496 0 0 0 0-10.941045000000031V778.940314A120.164359 120.164359 0 0 0 123.236119 895.959775h923.576093A120.38377 120.38377 0 0 0 1170.194606 778.940314v-789.881359a120.237496 120.237496 0 0 0-123.236119-117.019461zM1023.92028 18.313819999999964V615.259343l-399.914006-334.968206a63.92188 63.92188 0 0 0-77.964216 0L146.274326 615.259343V18.313819999999964h877.645954zM944.127636 749.6854490000001H226.213245L585.097303 457.136797z"  horiz-adv-x="1170" />

    
    <glyph glyph-name="left_dav_big_sel" unicode="&#58883;" d="M1067.885714 896H107.446857A129.389714 129.389714 0 0 1 0 782.262857v-803.620571A206.262857 206.262857 0 0 1 107.446857-128H1067.885714a210.724571 210.724571 0 0 1 102.4 113.810286V782.262857A110.299429 110.299429 0 0 1 1067.885714 896z m-53.248-471.04l-172.178285-176.128a193.609143 193.609143 0 0 0-131.657143 0L447.122286 487.643429l-197.485715-179.053715a109.714286 109.714286 0 0 0-97.645714 8.265143c-16.310857 15.433143 15.433143 35.986286 31.744 51.2l200.338286 222.793143a40.813714 40.813714 0 0 0 56.978286 0l336.457142-282.477714 197.485715 179.053714c16.237714 15.506286 23.990857 6.875429 40.301714-8.630857a44.324571 44.324571 0 0 0 0-54.052572z m0 0"  horiz-adv-x="1170" />

    
    <glyph glyph-name="left_dav_big" unicode="&#58888;" d="M1067.885714 896H107.446857A129.389714 129.389714 0 0 1 0 782.262857v-803.620571A206.262857 206.262857 0 0 1 107.446857-128H1067.885714a210.724571 210.724571 0 0 1 102.4 113.810286V782.262857A110.299429 110.299429 0 0 1 1067.885714 896zM73.142857 822.857143h1024v-877.714286H73.142857V822.857143zM1014.857143 425.033143l-172.178286-176.128a193.609143 193.609143 0 0 0-131.657143 0L447.268571 487.716571l-197.485714-179.053714a109.714286 109.714286 0 0 0-97.718857 8.265143c-16.237714 15.433143 15.506286 35.986286 31.817143 51.2l200.338286 222.793143a40.813714 40.813714 0 0 0 56.978285 0l336.018286-282.477714 197.485714 179.053714c16.237714 15.506286 23.990857 6.875429 40.301715-8.630857a44.324571 44.324571 0 0 0 0-54.052572z m0 0"  horiz-adv-x="1170" />

    
    <glyph glyph-name="left_dav_ove1" unicode="&#58892;" d="M167.69792 895.317333h1030.4A139.690667 139.690667 0 0 0 1280.444587 810.666667v-682.666667a147.370667 147.370667 0 0 0-85.333334-85.333333H171.111253a146.176 146.176 0 0 0-85.333333 85.333333V810.666667a137.984 137.984 0 0 0 81.92 84.650666zM683.111253 384H597.77792v-170.666667h85.333333V384m170.666667 170.666667H768.444587v-341.333334h85.333333M512.444587 298.666667H427.111253v-85.333334h85.333334V298.666667M43.111253-128a45.909333 45.909333 0 0 0 0 91.648h1279.146667a45.909333 45.909333 0 0 0 0-91.648H43.111253zM1195.111253 810.666667H171.111253v-682.666667h1024V810.666667z m-256-170.666667h85.333334v-426.666667h-85.333334V640z"  horiz-adv-x="1365" />

    
    <glyph glyph-name="left_dav_cal" unicode="&#58893;" d="M878.260614 749.899833V896h-73.050084v-146.100167H366.910029V896H293.859946v-146.100167H74.709695a60.704619 60.704619 0 0 1-73.050084-73.050084v-730.500835c0-86.052998 1.241851-73.050084 73.050084-73.050084h939.862375c81.816094 0 155.888878-2.848953 155.888878 0V634.626801C1170.460948 715.420193 1177.765956 749.899833 1097.410864 749.899833h-219.15025zM293.859946 676.849749v-73.050083h73.050083V676.849749h438.300501v-73.050083h73.050084V676.849749h219.15025v-219.15025H74.709695V676.849749h219.150251zM74.709695-53.651086V384.649415h1022.701169v-438.300501H74.709695z"  horiz-adv-x="1172" />

    
    <glyph glyph-name="left_dav_cal_sel" unicode="&#58894;" d="M878.260614 749.899833V896h-73.050084v-146.100167H366.910029V896H293.859946v-146.100167H74.709695a60.704619 60.704619 0 0 1-73.050084-73.050084v-730.500835c0-86.052998 1.314902-73.050084 73.050084-73.050084h939.862375c81.816094 0 155.888878-2.848953 155.888878 0V634.626801C1170.460948 715.420193 1177.765956 749.899833 1097.410864 749.899833h-219.15025zM74.709695 457.699499h1022.701169v-73.050084H74.709695z"  horiz-adv-x="1172" />

    
    <glyph glyph-name="left_dav_work_esl" unicode="&#58895;" d="M0-54.893383h1169.705874v-73.106617H0v73.106617zM1023.49264 895.49264a72.521764 72.521764 0 0 0 73.106617-73.106617v-731.066172a67.623621 67.623621 0 0 0-73.106617-73.106617H146.213234a67.550514 67.550514 0 0 0-73.106617 73.106617V822.386023a95.038602 95.038602 0 0 0 102.349264 73.106617H1023.49264zM772.81005 725.665968L403.840953 365.104133l-41.816985-122.088051 125.304742 40.720386 369.042203 360.488729z m0 0"  horiz-adv-x="1170" />

    
    <glyph glyph-name="left_dav_work" unicode="&#58896;" d="M1023.49264 18.213234H146.213234a67.550514 67.550514 0 0 0-73.106617 73.106617V822.386023a95.038602 95.038602 0 0 0 102.349264 73.106617H1023.49264a72.521764 72.521764 0 0 0 73.106617-73.106617v-731.066172a67.623621 67.623621 0 0 0-73.106617-73.106617z m0 804.172789H146.213234v-731.066172h877.279406V822.386023z m-250.68259-96.720055l83.560863-81.440771-369.042203-360.488729-125.304742-40.720386 41.743879 122.088051zM1169.705874-128H0v73.106617h1169.705874v-73.106617z"  horiz-adv-x="1170" />

    
    <glyph glyph-name="left_dav_mem" unicode="&#58897;" d="M388.048157 438.454494l-0.574886-0.574886 0.574886 0.574886zM958.143597 127.504959v-191.628719h-191.62872c-21.781798 0-57.999626-1.852411-57.999625-23.634209a39.667145 39.667145 0 0 1 39.347763-39.603269h236.342088a39.603269 39.603269 0 0 1 38.836753 39.603269v236.022706a39.092259 39.092259 0 0 1-38.836753 39.028383c-22.037303 0-26.061506-38.325744-26.061506-59.788161z m-702.638638-191.628719H63.87624v191.628719c0 21.526293-1.788535 59.78816-23.570333 59.788161a39.283887 39.283887 0 0 1-39.667145-39.028383v-236.022706a39.794897 39.794897 0 0 1 39.667145-39.603269h235.575573a39.858774 39.858774 0 0 1 39.603268 39.603269c0 21.781798-38.325744 23.634209-59.979789 23.634209z m-191.628719 702.638637v191.62872h191.628719c21.781798 0 59.979789 3.896451 59.979789 25.550496a39.475516 39.475516 0 0 1-39.603268 39.283887H40.305907A39.41164 39.41164 0 0 1 0.638762 855.694093v-235.767201a39.41164 39.41164 0 0 1 39.667145-39.347764c21.781798 0 23.570332 36.090075 23.570333 57.488616z m702.638637 191.62872h191.62872v-191.62872c0-21.717922 4.024203-57.488616 26.061506-57.488615a39.220011 39.220011 0 0 1 38.836753 39.347763V855.694093a39.220011 39.220011 0 0 1-38.836753 39.283887h-236.342088a39.283887 39.283887 0 0 1-39.347763-39.283887c0-21.781798 36.217828-25.550496 57.999625-25.550496M388.048157 438.454494l-0.574886-0.574886 0.574886 0.574886z m-90.704261-280.416692c62.790344 21.206912 86.80781 29.255318 91.279147 121.939742l-0.574886 0.574886-0.574886 0.51101a162.117897 162.117897 0 0 0-11.689352 16.224564l-1.149773 1.085897a68.2837 68.2837 0 0 0-9.964693 25.103362c-1.213649 6.96251-2.299545 13.350134-3.449317 18.396357v1.149772a791.490487 791.490487 0 0 1-3.577069 13.92502l-3.06606 6.387624v-0.574886a121.364856 121.364856 0 0 0-15.649679 57.488616 56.658225 56.658225 0 0 0 13.988897 49.120828v0.51101h0.51101c1.724658 2.55505-2.491173 29.319194-2.746679 55.252948a145.510074 145.510074 0 0 0 51.931383 123.345019 183.899694 183.899694 0 0 0 218.520617 0 142.571767 142.571767 0 0 0 52.186888-100.988335v-22.356684c0-25.933753-4.790718-52.697898-2.55505-55.252948l0.574886-0.51101c6.707005-7.281891 31.554862 11.817104 31.554863-22.803817a248.734078 248.734078 0 0 0-33.215645-83.805627l-0.574886-1.085896-2.491174-4.790718c-1.660782-5.557233-2.235668-10.284075-3.321564-15.074792a170.294055 170.294055 0 0 1-3.640946-18.396357 59.404903 59.404903 0 0 0-10.922837-25.933754 213.985403 213.985403 0 0 0-12.775248-17.310461c4.151956-92.684424 28.424927-100.73283 91.279147-121.939742a222.736448 222.736448 0 0 0 73.649304-29.319194 36.664962 36.664962 0 0 0 8.623293-11.114465 23.825837 23.825837 0 0 0-9.453684-31.93812 29.702452 29.702452 0 0 0-11.433847-2.55505H236.214335a23.378704 23.378704 0 0 0-23.378704 23.187075c0 33.47115 67.197804 45.735388 85.083151 51.612002zM447.133678 255.257439c-4.471337-99.263677-37.303724-103.671137-88.66022-124.814173h306.605951c-51.100992 21.143035-72.307903 48.801447-76.651488 148.129a43.180338 43.180338 0 0 0 1.660782 14.755412l0.574886 0.574886v1.085896a42.413823 42.413823 0 0 0 8.878798 15.394174c2.810555 3.06606 5.876614 7.792901 9.517559 12.775248a22.42056 22.42056 0 0 1 3.321565 7.281891c1.405277 8.367787 2.810555 15.330298 3.89645 21.781798s2.810555 12.775248 4.471337 17.821471a113.060944 113.060944 0 0 0 5.876614 13.41401l0.574886 1.341401a78.184517 78.184517 0 0 1 10.284075 36.026199 49.248581 49.248581 0 0 1-0.51101 16.735575l-0.574886 0.574886-1.085896 1.405277-1.660782 1.341402a219.223255 219.223255 0 0 0-7.601273 85.147027v20.632026a93.131558 93.131558 0 0 1-34.876427 66.111908 137.270039 137.270039 0 0 1-158.796332 0 97.155761 97.155761 0 0 1-34.620922-86.743934 494.402096 494.402096 0 0 0-2.491173-70.263864 22.101179 22.101179 0 0 0-4.471337-13.92502l-0.574886-1.149772-0.574886-0.51101-1.660783-1.660782-1.085896-1.149773a42.605452 42.605452 0 0 1-0.894267-16.735574 78.120641 78.120641 0 0 1 10.347951-36.0262 95.81436 95.81436 0 0 0 6.387624-13.350134l0.51101-1.405277c1.149772-5.046223 2.491173-10.347951 3.89645-16.735575l0.574887-1.085896c1.149772-6.387624 2.810555-13.41401 3.640945-21.781798a20.37652 20.37652 0 0 1 3.57707-6.707005v-0.574886c3.129936-4.471337 6.387624-8.878797 8.942673-12.008733l0.574886-0.51101a45.927016 45.927016 0 0 0 8.687169-15.394174 30.852224 30.852224 0 0 0 2.491173-15.330297v-1.085897z"  horiz-adv-x="1024" />

    
    <glyph glyph-name="left_dav_mem_sel" unicode="&#58898;" d="M388.048157 438.454494l-0.574886-0.574886 0.574886 0.574886zM958.143597 127.504959v-191.628719h-191.62872c-21.781798 0-57.999626-1.852411-57.999625-23.634209a39.667145 39.667145 0 0 1 39.347763-39.603269h236.342088a39.603269 39.603269 0 0 1 38.772877 39.603269v236.022706a39.092259 39.092259 0 0 1-38.772877 39.028383c-22.101179 0-26.125382-38.325744-26.125382-59.788161z m-702.638638-191.628719H63.87624v191.628719c0 21.526293-1.788535 59.78816-23.570333 59.788161a39.283887 39.283887 0 0 1-39.667145-39.028383v-236.022706a39.794897 39.794897 0 0 1 39.667145-39.603269h235.575573a39.858774 39.858774 0 0 1 39.603268 39.603269c0 21.781798-38.325744 23.634209-59.979789 23.634209z m-191.628719 702.638637v191.62872h191.628719c21.781798 0 59.979789 3.896451 59.979789 25.550496a39.475516 39.475516 0 0 1-39.603268 39.283887H40.305907A39.41164 39.41164 0 0 1 0.638762 855.694093v-235.767201a39.41164 39.41164 0 0 1 39.667145-39.347764c21.781798 0 23.570332 36.090075 23.570333 57.488616z m702.638637 191.62872h191.62872v-191.62872c0-21.717922 4.024203-57.488616 26.125382-57.488615a39.220011 39.220011 0 0 1 38.772877 39.347763V855.694093a39.220011 39.220011 0 0 1-38.772877 39.283887h-236.342087a39.283887 39.283887 0 0 1-39.347764-39.283887c0-21.781798 36.217828-25.550496 57.999626-25.550496M388.048157 438.454494l-0.574886-0.574886 0.574886 0.574886z m-90.704261-280.416692c62.790344 21.206912 86.80781 29.255318 91.279147 121.939742l-0.574886 0.574886-0.574886 0.51101a162.117897 162.117897 0 0 0-11.689352 16.224564l-1.149773 1.085897a69.561225 69.561225 0 0 0-10.028569 25.103362 340.204853 340.204853 0 0 1-3.321565 18.396357v1.149772l-3.640945 13.92502-3.06606 6.387624v-0.574886a121.364856 121.364856 0 0 0-15.649679 57.488616 56.658225 56.658225 0 0 0 13.988897 49.120828v0.51101h0.574886c1.660782 2.55505-2.55505 29.319194-2.810555 55.252948a145.701703 145.701703 0 0 0 51.931383 123.345019 183.899694 183.899694 0 0 0 218.520617 0 142.571767 142.571767 0 0 0 52.186888-100.988335v-22.356684c0-25.933753-4.790718-52.697898-2.55505-55.252948l0.574886-0.51101c6.707005-7.281891 31.554862 11.817104 31.554863-22.803817a247.456553 247.456553 0 0 0-33.215645-83.805627l-0.574886-1.085896-2.491174-4.790718c-1.660782-5.557233-2.235668-10.284075-3.321564-15.074792a170.294055 170.294055 0 0 1-3.640946-18.396357 60.043665 60.043665 0 0 0-10.85896-25.933754 214.04928 214.04928 0 0 0-12.775248-17.310461c4.151956-92.684424 28.424927-100.73283 91.279146-121.939742a222.736448 222.736448 0 0 0 73.649305-29.319194 36.664962 36.664962 0 0 0 8.623292-11.114465 23.825837 23.825837 0 0 0-9.453683-31.93812 29.702452 29.702452 0 0 0-11.433847-2.55505H235.703325a23.378704 23.378704 0 0 0-23.44258 23.187075c0 33.47115 67.26168 45.735388 85.083151 51.612002z"  horiz-adv-x="1024" />

    
    <glyph glyph-name="left_dav_gra" unicode="&#58901;" d="M50.611037 895.921012H341.916565C370.293805 895.921012 366.783219 847.284764 366.783219 822.783797v-438.823291l292.54886 219.411645a125.942284 125.942284 0 0 0 107.804255 28.450377A89.8125 89.8125 0 0 0 805.606509 603.372151v-219.411645l292.548861 219.411645c20.332146 17.918618 38.177626 46.295857 58.509772 28.450377a39.786645 39.786645 0 0 0 14.627443-31.302728v-682.662766a48.343699 48.343699 0 0 0-51.196051-44.979387H50.611037a47.685464 47.685464 0 0 0-50.610952 44.979387V851.014762a47.978013 47.978013 0 0 0 50.610952 44.979387zM74.234358 383.960506h219.411645V457.097721H74.234358v-73.137215z m219.411645-73.137215H74.234358v-365.686076h1023.921012V457.097721l-292.548861-219.411645c-8.776466-8.264505 13.822934 0 0 0h-73.137215V530.234936L366.783219 237.686076a172.384416 172.384416 0 0 0-76.135841 21.941164M293.646003 822.783797H74.234358v-146.274431h219.411645l-2.998625 129.452871M74.234358 603.372151v-73.137215l216.41302-2.486665v74.599959H101.880225"  horiz-adv-x="1171" />

    
    <glyph glyph-name="left_dav_gra_sel" unicode="&#58902;" d="M1155.657143 632.685714c-21.942857 14.628571-36.571429-14.628571-58.514286-29.257143l-292.571428-219.428571V603.428571c-7.314286 14.628571-21.942857 21.942857-36.571429 29.257143-43.885714 7.314286-80.457143 0-109.714286-29.257143L365.714286 384V822.857143c0 21.942857 0 73.142857-21.942857 73.142857h-292.571429C21.942857 896 0 874.057143 0 852.114286v-936.228572c0-21.942857 21.942857-43.885714 51.2-43.885714h1067.885714c29.257143 0 51.2 21.942857 51.2 43.885714V603.428571c0 7.314286-7.314286 21.942857-14.628571 29.257143zM292.571429 310.857143H73.142857V384h219.428572v-73.142857z m0 146.285714H73.142857V530.285714h219.428572v-73.142857z m0 146.285714H73.142857V676.571429h219.428572v-73.142858z"  horiz-adv-x="1170" />

    
    <glyph glyph-name="left_dav_card" unicode="&#58903;" d="M1143.04638 518.516972c-16.590251 17.248014-14.616961 9.135601-40.123559 9.135601h-68.626633L833.970732 846.302331a31.280297 31.280297 0 0 1-5.042852 8.331668 96.6912 96.6912 0 0 1-51.159365 36.542404 93.767807 93.767807 0 0 1-67.238022-4.750513 33.399757 33.399757 0 0 1-7.308481-4.165834L48.162888 529.260439l-3.142647-1.461696a83.901358 83.901358 0 0 1-41.439085-54.155842 86.166987 86.166987 0 0 1 11.10889-64.533885l196.086537-317.991995V-54.10249c0-12.058993 77.031386-73.084807 68.699719-73.084807h823.446519a60.368051 60.368051 0 0 1 68.699719 73.084807l-4.092749 511.593648a86.97092 86.97092 0 0 1-24.483411 60.952729z m-1001.261855-63.583782h68.626634v-218.304318L91.721433 451.059695a7.308481 7.308481 0 0 0-1.242442 5.042852h-0.511594l-16.73642-1.169357 17.321099 1.754036-17.321099-1.754036 677.423075 356.873112a13.959198 13.959198 0 0 0 4.165834-3.288816l4.969767 10.158788s128.702345-284.153729 205.952986-291.023701c34.20369-2.996477-617.932043 0-617.932043 0-50.282347 0-124.682681-21.925442-124.68268-70.08833zM1102.922821-54.10249c0-2.411799 0.950102 1.169357 0 0H347.664427c-1.242442 1.169357-68.626634-2.411799-68.626634 0V455.225529l33.765181 3.80041 0.657763 1.534781v1.169357h0.584678v0.584679l33.619012-7.308481h686.631761c0.950102-1.242442 68.626634 2.046375 68.626633 0V-54.10249zM90.405906 456.979565z"  horiz-adv-x="1173" />

    
    <glyph glyph-name="left_dav_card_sel" unicode="&#58904;" d="M1142.60438 545.328579c-16.583836 15.999384-14.611309 8.474559-40.108044 8.474559h-68.600096L833.648247 849.536037a27.834544 27.834544 0 0 1-5.040902 7.743994 96.65381 96.65381 0 0 1-51.139582 34.26352 100.67192 100.67192 0 0 1-67.212022-4.45645 35.432425 35.432425 0 0 1-7.305655-3.871997L48.144264 555.556495l-3.141432-1.388074a78.6819 78.6819 0 0 1-41.423061-50.262904 75.029073 75.029073 0 0 1 11.104595-59.833311l196.083769-295.148446v-208.1381c0-11.177652 76.928543-67.577305 68.600097-67.577305h823.128104a57.933841 57.933841 0 0 1 68.673154 67.577305l-4.01811 547.924096a77.805222 77.805222 0 0 1-24.547 56.545766z m-1000.874681-59.029689h68.673154v-202.658859L91.759022 482.646062a6.575089 6.575089 0 0 0-1.315018 4.748676h-0.511396l-16.729949-1.095848 17.314402 1.607244-17.314402-1.607244 677.234182 331.23838a14.611309 14.611309 0 0 0 4.091167-2.995319l4.967845 9.424295s128.725634-263.807188 205.946403-270.309221c34.190464-2.776149-617.766153 0-617.766153 0-50.262904 0-124.634468-20.601946-124.634468-65.020326z m-51.139582 1.607244z"  horiz-adv-x="1173" />

    
    <glyph glyph-name="left_dav_mark" unicode="&#58907;" d="M1018.337107 745.818827l-52.202663-51.179081 12.346954-71.906608a19.192155 19.192155 0 0 0-27.57273-20.023815l-64.485641 33.970114-64.485642-33.970114a19.192155 19.192155 0 0 0-27.57273 20.023815l12.28298 71.906608-52.138689 51.179081a19.192155 19.192155 0 0 0-4.798038 19.192155 18.744338 18.744338 0 0 0 15.28975 12.79477l72.09853 10.491711 31.986925 65.381276a19.192155 19.192155 0 0 0 34.034089 0l31.986925-65.381276 72.09853-10.491711a19.192155 19.192155 0 0 0 11.13145-31.986925z m-98.00794 6.717254a19.192155 19.192155 0 0 0-14.266168 10.363764l-19.639972 39.855709-19.639973-39.855709a19.192155 19.192155 0 0 0-14.330142-10.363764l-43.886062-6.397385 31.986926-31.027318a19.192155 19.192155 0 0 0 5.501751-16.825123l-7.484941-43.758113 39.279945 20.663553a18.744338 18.744338 0 0 0 17.656782 0l39.279945-20.663553-7.484941 43.758113a19.192155 19.192155 0 0 0 5.437777 16.825123l31.986926 31.027318z m-52.714453-319.357463a29.683867 29.683867 0 0 0-8.380574-52.586505l-262.292788-81.502686-81.502686-262.292788a29.619893 29.619893 0 0 0-52.522531-8.380574l-158.463228 223.908477-274.319872-3.518561H29.749192a29.683867 29.683867 0 0 0-23.798272 47.468597l164.092927 220.070046-88.091993 260.053703a29.619893 29.619893 0 0 0 37.616624 37.616624l259.861782-88.155966L599.308385 890.07986a29.683867 29.683867 0 0 0 47.468597-24.182116l-3.518562-274.575767zM596.557509 552.233954a29.619893 29.619893 0 0 0-12.79477 24.629933l2.942797 230.305862-184.24469-137.607752a29.683867 29.683867 0 0 0-27.25286-4.286248l-217.511093 73.825823 73.825824-217.830961a29.811814 29.811814 0 0 0-4.286248-27.316835L89.69269 309.581139l229.858046 2.942797H320.254448a29.683867 29.683867 0 0 0 24.246089-12.79477l132.745741-187.827226L545.442402 331.588143a29.683867 29.683867 0 0 0 19.575999 19.192156l219.494281 68.324072z m-548.2559-502.89844l72.098529 10.491712 31.986926 65.381275a19.192155 19.192155 0 0 0 34.098062 0l31.986925-65.381275 72.09853-10.491712a19.192155 19.192155 0 0 0 10.555686-32.434742l-52.202663-50.859211 12.28298-71.906609a19.192155 19.192155 0 0 0-27.508756-20.023815l-64.485642 33.970115-64.549615-33.970115a19.192155 19.192155 0 0 0-27.508756 20.023815l12.28298 71.906609-52.138689 50.859211a19.192155 19.192155 0 0 0 11.003503 32.434742z m75.297222-63.078217a19.192155 19.192155 0 0 0 5.501751-16.825122l-7.548914-43.758114 39.279944 20.663554a19.192155 19.192155 0 0 0 17.720757 0l39.279944-20.663554-7.548914 43.758114a19.192155 19.192155 0 0 0 5.501751 16.825122l31.986925 31.027318-43.950035 6.397385a18.808312 18.808312 0 0 0-14.266169 10.363764l-19.639972 39.791735-19.639972-39.791735a19.192155 19.192155 0 0 0-14.330143-10.427738l-43.950035-6.397385z"  horiz-adv-x="1024" />

    
    <glyph glyph-name="left_dav_mark_sel" unicode="&#58908;" d="M1018.294104 745.86357l-52.198227-51.174733 12.345904-71.900499a19.190525 19.190525 0 0 0-27.570387-20.022114l-64.480163 33.967229-64.480163-33.967229a19.190525 19.190525 0 0 0-27.570387 20.022114l12.345904 71.900499-52.198227 51.174733a19.190525 19.190525 0 0 0 10.49082 32.368018l72.156373 10.49082 31.984208 65.375721a19.190525 19.190525 0 0 0 34.031197 0l31.984208-65.375721 72.092404-10.49082a19.190525 19.190525 0 0 0 11.066536-32.368018z m-97.999613 6.716683a19.190525 19.190525 0 0 0-14.264956 10.362884l-19.638304 39.852323-19.638303-39.852323a19.190525 19.190525 0 0 0-14.328925-10.362884l-43.882334-6.396841 31.984208-31.024682a19.190525 19.190525 0 0 0 5.437316-16.823693l-7.484305-43.754396 39.276607 20.661798a18.742746 18.742746 0 0 0 17.655283 0l39.276607-20.661798-7.484305 43.754396a19.190525 19.190525 0 0 0 5.437316 16.823693l31.984208 31.024682z m-52.709974-319.33033a29.681345 29.681345 0 0 0-8.379862-52.582038l-262.270504-81.495761-81.431793-262.270504a29.681345 29.681345 0 0 0-52.582038-8.379863l-158.385797 223.889455-274.360535-3.518263H29.790178a29.681345 29.681345 0 0 0-23.796251 47.464564l164.142955 220.05135-88.148477 260.03161a29.617376 29.617376 0 0 0 37.613428 37.613428l259.839705-88.148477L599.36495 890.112347a29.617376 29.617376 0 0 0 47.336628-24.180061l-3.454294-274.55244z m-819.243498-383.810494l72.092404 10.49082 31.984208 65.375721a19.190525 19.190525 0 0 0 34.031197 0l31.984208-65.375721 72.092404-10.49082a19.190525 19.190525 0 0 0 10.554789-32.431986l-52.198228-50.854891 12.345905-71.900499a19.190525 19.190525 0 0 0-27.570387-20.022114l-64.480163 33.967229-64.544132-33.967229a18.806714 18.806714 0 0 0-19.958145 1.471274 19.190525 19.190525 0 0 0-7.548273 18.55084l12.281935 71.900499-52.134258 50.854891a19.190525 19.190525 0 0 0 11.066536 32.431986z m75.290825-63.072857a19.190525 19.190525 0 0 0 5.501283-16.823694l-7.548273-43.754396 39.340576 20.661798a19.190525 19.190525 0 0 0 17.655283 0l39.276607-20.661798-7.484305 43.754396a19.190525 19.190525 0 0 0 5.437316 16.823694l31.984207 31.024681-43.946301 6.396842a18.806714 18.806714 0 0 0-14.264957 10.362883l-19.638303 39.788354-19.638304-39.788354a19.190525 19.190525 0 0 0-14.328925-10.426852l-43.882333-6.396841z"  horiz-adv-x="1024" />

    
    <glyph glyph-name="left_dav_inte_sel" unicode="&#58909;" d="M0 653.238857c0-134.070857 261.997714-242.761143 585.142857-242.761143s585.142857 108.690286 585.142857 242.761143S908.288 896 585.142857 896 0 787.309714 0 653.238857z m585.142857-315.757714c-239.030857 0-444.562286 59.392-535.405714 144.603428A136.411429 136.411429 0 0 1 0 384c0-134.070857 261.997714-242.761143 585.142857-242.761143S1170.285714 249.929143 1170.285714 384a136.265143 136.265143 0 0 1-49.810285 98.084571C1029.705143 396.873143 824.173714 337.481143 585.142857 337.481143z m0-275.968c-242.176 0-449.901714 61.001143-538.916571 148.041143a133.997714 133.997714 0 0 1-46.226286-95.085715c0-134.070857 261.997714-242.761143 585.142857-242.761142s585.142857 108.690286 585.142857 242.761142a134.144 134.144 0 0 1-46.299428 95.085715c-88.941714-87.04-296.740571-148.041143-538.843429-148.041143z m0 0"  horiz-adv-x="1170" />

    
    <glyph glyph-name="left_dav_inte" unicode="&#58910;" d="M585.142857 398.628571c333.604571 0 585.142857 107.081143 585.142857 248.685715S918.747429 896 585.142857 896 0 788.918857 0 647.314286s251.538286-248.685714 585.142857-248.685715zM585.142857 822.857143c258.340571 0 521.874286-112.713143 521.874286-175.542857C1107.017143 586.678857 860.672 457.142857 585.142857 457.142857 318.683429 457.142857 63.195429 582.144 63.195429 647.314286 63.195429 710.217143 277.577143 822.857143 585.142857 822.857143z m0-688.274286c332.653714 0 583.533714 106.349714 583.533714 247.442286a144.822857 144.822857 0 0 1-50.029714 102.985143l-0.585143 0.658285-0.585143 0.658286a28.672 28.672 0 0 1-48.201142-20.992 28.306286 28.306286 0 0 1 9.508571-20.992 93.696 93.696 0 0 0 30.134857-62.098286c0-88.868571-214.966857-187.757714-523.483428-187.757714S61.952 293.376 61.952 382.244571a76.214857 76.214857 0 0 0 30.793143 62.610286l0.877714 0.804572 0.512 0.438857a28.086857 28.086857 0 0 1 7.753143 19.236571 28.891429 28.891429 0 0 1-49.225143 20.260572 145.188571 145.188571 0 0 1-50.468571-103.643429c0-141.092571 250.88-247.442286 583.533714-247.442286z m533.211429 88.429714l-0.585143 0.731429a28.672 28.672 0 0 1-48.201143-20.992 28.233143 28.233143 0 0 1 9.508571-20.992 93.915429 93.915429 0 0 0 30.061715-62.171429c0-88.795429-214.966857-187.757714-523.483429-187.757714S62.171429 30.793143 62.171429 119.588571a75.995429 75.995429 0 0 0 30.793142 62.610286l0.877715 0.877714 0.512 0.438858a28.086857 28.086857 0 0 1 7.753143 19.236571 28.891429 28.891429 0 0 1-49.152 20.260571 145.188571 145.188571 0 0 1-50.468572-103.716571c0-141.019429 250.88-247.369143 583.533714-247.369143s583.533714 106.349714 583.533715 247.369143a145.115429 145.115429 0 0 1-49.956572 103.058286l-0.658285 0.585143z m0 0"  horiz-adv-x="1170" />

    
    <glyph glyph-name="left_dav_lab" unicode="&#58912;" d="M992.512 896h-454.4a42.56 42.56 0 0 1-28.736-12.288l-496-492.8-1.088-0.576a38.4 38.4 0 0 1 0-55.296l453.184-449.472 0.576-0.832a39.808 39.808 0 0 1 56 0l497.408 493.312a39.872 39.872 0 0 1 12.544 28.352V856.512a39.232 39.232 0 0 1-39.36 39.36z m-40-473.216l-458.24-454.4-398.08 394.24L584 832h384v-384z m-169.984 107.712a117.888 117.888 0 1 1-118.784 117.888 118.592 118.592 0 0 1 118.784-117.888z m0 188.224a70.4 70.4 0 0 0 70.912-70.4 71.232 71.232 0 1 0-70.912 70.4z"  horiz-adv-x="1032" />

    
    <glyph glyph-name="left_dav_grou" unicode="&#58914;" d="M781.072755-87.785973a34.907565 34.907565 0 1 0-69.239731 0 153.439847 153.439847 0 0 1-39.766493 107.343959 195.955471 195.955471 0 0 1-117.829016 60.22514 99.735901 99.735901 0 0 0-64.31687 33.4371 111.627489 111.627489 0 0 0-26.724106 73.331461v16.494783a39.89436 39.89436 0 0 0 18.668514 34.523966 177.73449 177.73449 0 0 1 44.753289 80.619853 173.962427 173.962427 0 0 0 32.669901 64.380802l0.511466 1.150799 1.406532 1.342599a131.702535 131.702535 0 0 1 26.532307 44.305756 42.643491 42.643491 0 0 1-2.429464 39.638627l-0.7672 1.662265h-0.447532a59.202208 59.202208 0 0 0-6.393327 44.050023 438.710096 438.710096 0 0 1 14.001386 70.326596 244.60869 244.60869 0 0 1 0 59.649741 234.0597 234.0597 0 0 1-40.725493 94.237639 46.415554 46.415554 0 0 1-35.355098 24.550376 57.539943 57.539943 0 0 0-34.843632 5.562194 65.659468 65.659468 0 0 0-26.020841 26.468374 52.169548 52.169548 0 0 1-34.140366 17.325916 311.418956 311.418956 0 0 1-60.672673 3.644197 173.323094 173.323094 0 0 1-104.275163-31.966635 163.924903 163.924903 0 0 1-55.302278-87.58858 326.379342 326.379342 0 0 1-14.193186-98.712968 238.279296 238.279296 0 0 1 14.704652-85.031249 61.951338 61.951338 0 0 0 2.685198-15.855451 46.35162 46.35162 0 0 0-9.078525-27.938838v-0.511467l-0.958999-1.150798a45.968021 45.968021 0 0 1-1.726198-38.359962v1.150799a138.415529 138.415529 0 0 1 27.043773-46.287688h0.447533l2.94093-3.32453a179.013155 179.013155 0 0 0 30.432237-62.718537 168.655965 168.655965 0 0 1 48.653218-83.113251 40.533693 40.533693 0 0 0 17.134116-33.501033v-14.768585a110.029157 110.029157 0 0 0-26.97984-73.331461 99.608034 99.608034 0 0 0-63.933269-33.4371 193.398141 193.398141 0 0 1-117.829016-60.22514 151.649716 151.649716 0 0 1-40.27796-107.343959 37.337029 37.337029 0 0 0-34.907565-39.318961 36.95343 36.95343 0 0 0-34.332166 39.318961 236.553098 236.553098 0 0 0 61.375939 164.180636 271.20493 271.20493 0 0 0 159.833174 82.282118 31.966635 31.966635 0 0 1 20.842246 10.293257 23.719243 23.719243 0 0 1 5.881861 12.275187 254.070814 254.070814 0 0 0-59.649741 107.599693 220.441914 220.441914 0 0 1-14.257119 35.482965l-0.703266 0.511466-0.511466 0.575399a165.587168 165.587168 0 0 0-42.963158 175.944359 341.083994 341.083994 0 0 0-13.234186 95.899904 423.685778 423.685778 0 0 0 17.134116 124.925609 224.66151 224.66151 0 0 0 223.766444 172.619828 340.444661 340.444661 0 0 0 74.418326-4.731062 115.911018 115.911018 0 0 0 77.103523-48.205685 106.193161 106.193161 0 0 0 93.27864-52.744948 280.98672 280.98672 0 0 0 31.135502-52.425281 171.341163 171.341163 0 0 0 72.180662-1.342599l2.493397-0.575399a159.833174 159.833174 0 0 0 86.885314-49.356484 96.667104 96.667104 0 0 0 78.573988-45.968021 290.76851 290.76851 0 0 0 48.589285-113.225821 249.339752 249.339752 0 0 0-6.393327-86.43778 269.926264 269.926264 0 0 1-5.114661-34.0125 113.225821 113.225821 0 0 0 5.114661-92.575374 193.462074 193.462074 0 0 0-38.999294-65.531601 106.257094 106.257094 0 0 1-11.827655-27.619173 228.689306 228.689306 0 0 0-45.648355-86.118114 18.348848 18.348848 0 0 1 2.940931-7.22446 19.179981 19.179981 0 0 1 12.275188-5.050728 226.707374 226.707374 0 0 0 135.538531-69.431531 201.709466 201.709466 0 0 0 52.553148-139.949927 34.907565 34.907565 0 1 0-69.239731 0 121.473212 121.473212 0 0 1-31.455169 84.200116 164.116703 164.116703 0 0 1-93.27864 47.694219 81.323119 81.323119 0 0 0-60.161207 34.268233 129.337005 129.337005 0 0 0-20.33078 73.651126 40.022227 40.022227 0 0 0 17.645583 33.948567 144.29739 144.29739 0 0 1 35.355098 63.293937 142.635125 142.635125 0 0 0 28.002772 56.069477h0.447533l1.022932 1.086866a102.293231 102.293231 0 0 1 20.586513 34.587898 28.194572 28.194572 0 0 1-0.958999 25.573308 42.451691 42.451691 0 0 0-8.822791 24.870042 253.047881 253.047881 0 0 0 7.352326 66.362734 177.862356 177.862356 0 0 1 5.370394 56.580944 189.114612 189.114612 0 0 1-32.8617 74.482259 35.291165 35.291165 0 0 1-23.591377 18.348848 51.146616 51.146616 0 0 0-31.966635 5.306462l-1.981931 1.150799a57.539943 57.539943 0 0 0-21.609445 21.993044l-0.447533 0.5754a94.813039 94.813039 0 0 1-47.630286 22.312711l-2.237664 0.575399a139.182728 139.182728 0 0 1-33.6289 3.32453l1.470465-5.626127h-0.447533a349.651052 349.651052 0 0 0 0.447533-81.387053 474.256994 474.256994 0 0 0-12.786654-69.175797 163.413437 163.413437 0 0 0-38.999294-178.437756l-1.214732-1.342599-0.511467-0.575399-0.958999-0.5754a180.739353 180.739353 0 0 1-14.768585-35.99443 253.751147 253.751147 0 0 0-58.115342-105.362029 22.568444 22.568444 0 0 1 6.393327-13.937453v-1.086865a34.843632 34.843632 0 0 1 21.097979-9.78179 270.181998 270.181998 0 0 0 159.833174-82.282118 235.274432 235.274432 0 0 0 61.631672-164.180637z"  horiz-adv-x="1024" />

    
    <glyph glyph-name="left_dav_grou_sel" unicode="&#58915;" d="M219.151563 384.609732l-184.774951-511.841969a36.980582 36.980582 0 0 0-34.357392 39.347851 236.726911 236.726911 0 0 0 61.421036 164.301272 271.596145 271.596145 0 0 0 159.950615 82.342577 31.990123 31.990123 0 0 1 20.85756 10.30082 23.224829 23.224829 0 0 1 5.886183 12.284207 254.257498 254.257498 0 0 0-59.693569 107.678754 220.603889 220.603889 0 0 1-14.267595 35.509037l-0.703783 0.511842-0.511842 0.575822a165.708837 165.708837 0 0 0-42.994725 176.073637 341.334613 341.334613 0 0 0-13.243911 95.970369 422.269624 422.269624 0 0 0 17.210686 125.017401 224.698624 224.698624 0 0 0 223.930861 172.746665 340.69481 340.69481 0 0 0 74.473007-4.734539 115.996186 115.996186 0 0 0 77.160176-48.241105 106.271189 106.271189 0 0 0 93.347179-52.783703 281.193182 281.193182 0 0 0 31.15838-52.463802 171.46706 171.46706 0 0 0 72.233698-1.343585l2.49523-0.575822a159.950615 159.950615 0 0 0 86.949154-49.39275 96.738132 96.738132 0 0 0 78.631723-46.001797 290.982159 290.982159 0 0 0 48.624987-113.309016 247.795493 247.795493 0 0 0-6.398025-86.501293 270.124599 270.124599 0 0 1-5.11842-34.037491 113.309016 113.309016 0 0 0 5.11842-92.643396 193.604225 193.604225 0 0 0-39.02795-65.579752 106.335169 106.335169 0 0 1-11.836346-27.639467 227.961617 227.961617 0 0 0-45.681895-86.181391 18.362331 18.362331 0 0 1 2.943091-7.229768 19.194074 19.194074 0 0 1 12.284207-5.054439 226.745992 226.745992 0 0 0 135.638122-69.482548 201.857676 201.857676 0 0 0 52.591762-140.052758 34.933214 34.933214 0 1 0-69.290606 0 121.562468 121.562468 0 0 1-31.478281 84.261984 164.237292 164.237292 0 0 1-93.347179 47.729263 81.382873 81.382873 0 0 0-60.205412 34.293412 129.432038 129.432038 0 0 0-20.345718 73.705244 40.051634 40.051634 0 0 0 17.658548 33.97351 143.827593 143.827593 0 0 1 35.381076 63.340444 142.739929 142.739929 0 0 0 28.023348 56.110676h0.447861l1.023684 1.087664a102.368394 102.368394 0 0 1 20.60164 34.613313 28.215289 28.215289 0 0 1-0.959704 25.592099 42.482883 42.482883 0 0 0-8.829274 24.888315 253.233814 253.233814 0 0 0 7.357728 66.411496 177.993045 177.993045 0 0 1 5.374341 56.622518 189.253568 189.253568 0 0 1-32.885847 74.536986 35.317096 35.317096 0 0 1-23.60871 18.362331 51.184197 51.184197 0 0 0-31.990123 5.31036l-1.983388 1.151645a57.582221 57.582221 0 0 0-21.625323 22.009204l-0.447862 0.575823a94.882705 94.882705 0 0 1-47.665283 22.329106l-2.239309 0.575822a139.284996 139.284996 0 0 1-33.653609 3.326973l1.471545-5.630262h-0.447861a349.907966 349.907966 0 0 0 0.447861-81.446853 474.093624 474.093624 0 0 0-12.796049-69.226627 163.72545 163.72545 0 0 0-39.09193-178.568867l-1.215625-1.343585-0.511842-0.575822-0.959704-0.575822a180.872156 180.872156 0 0 1-14.779437-36.020879 253.937597 253.937597 0 0 0-58.158043-105.439445 22.840948 22.840948 0 0 1 6.398024-13.947694v-1.087664a35.189135 35.189135 0 0 1 21.177462-9.788978 270.25256 270.25256 0 0 0 159.950615-82.342576 235.447306 235.447306 0 0 0 61.676957-164.301272 37.300483 37.300483 0 0 0-34.357392-39.347852H34.376612z"  horiz-adv-x="1024" />

    
    <glyph glyph-name="left_dav_memb" unicode="&#58917;" d="M1097.276866 896a111.253406 111.253406 0 0 0 73.000922-73.000922l1.679022 37.887478v-938.353857a43.800553 43.800553 0 0 0-42.778541-44.31156h-0.584007L75.263951-126.012915a59.714755 59.714755 0 0 0-73.000922 73.000923V822.999078c0.438006 25.33132-15.622197 73.000922 73.000922 73.000922h1022.012915zM356.828509 119.854192a29.200369 29.200369 0 0 0-31.463397-27.083342 29.200369 29.200369 0 0 0-31.171394 27.448347 121.911541 121.911541 0 0 0 47.450599 95.558207 226.30286 226.30286 0 0 0 119.794514 47.158596 19.856251 19.856251 0 0 1 11.89915 4.234054l1.825024 1.60602a134.686702 134.686702 0 0 0-42.267535 60.371763 98.989251 98.989251 0 0 1-9.636121 17.739224l-0.73001 0.949012a121.400534 121.400534 0 0 0-34.894441 44.238559 61.977783 61.977783 0 0 0 1.53302 58.400738 147.242861 147.242861 0 0 0-8.979114 52.925669 181.699296 181.699296 0 0 0 12.62916 71.686906 144.687828 144.687828 0 0 0 62.707792 74.606943 227.032869 227.032869 0 0 0 106.508346 26.13433 388.656911 388.656911 0 0 0 55.553702-2.920037 96.872224 96.872224 0 0 0 58.400738-26.13433 98.405244 98.405244 0 0 0 70.080886-31.6094 175.859222 175.859222 0 0 0 43.070544-77.52698 160.018022 160.018022 0 0 0 0-46.501587 196.445482 196.445482 0 0 0-8.906112-37.741477 59.787756 59.787756 0 0 0 2.628033-60.736768l-0.730009-2.263028a123.298558 123.298558 0 0 0-34.164432-42.924543l-1.095014-0.657008c-1.460018-1.971025-4.453056-9.052114-8.906113-17.44722a144.322824 144.322824 0 0 0-40.807515-59.422751 3.723047 3.723047 0 0 1 1.460018-2.555033 18.688236 18.688236 0 0 1 11.899151-4.526057 229.076895 229.076895 0 0 0 120.159518-47.450599 120.232519 120.232519 0 0 0 46.72059-95.558208 29.200369 29.200369 0 0 0-31.098393-27.448347 29.200369 29.200369 0 0 0-31.171393 27.083342 70.226887 70.226887 0 0 1-27.448347 56.502714 152.790931 152.790931 0 0 1-82.783046 32.339409 82.126038 82.126038 0 0 0-50.005632 19.710249 56.502714 56.502714 0 0 0-21.900277 45.260572v7.738098a28.616362 28.616362 0 0 0 15.184192 24.236306 88.696121 88.696121 0 0 1 31.901403 42.924543 95.485207 95.485207 0 0 0 24.52831 37.741477l1.460018 1.022012a76.504967 76.504967 0 0 1 17.812225 22.557286l0.73001 1.314016a13.797174 13.797174 0 0 1-0.73001 16.790212 22.849289 22.849289 0 0 0-7.300092 16.790212l-0.730009 1.898024a21.243268 21.243268 0 0 0 1.460018 11.680148 210.680662 210.680662 0 0 1 9.636122 38.690489 92.492169 92.492169 0 0 1 0 32.339409 108.260368 108.260368 0 0 1-29.200369 49.421624 31.317396 31.317396 0 0 1-20.075254 12.556159 55.772705 55.772705 0 0 0-28.54336 3.577045 45.260572 45.260572 0 0 0-20.367258 14.600185l-1.460018 1.314016a34.675438 34.675438 0 0 1-20.805263 7.738098 283.389581 283.389581 0 0 1-42.997543 1.60602 146.585852 146.585852 0 0 1-73.000923-16.790212 87.090101 87.090101 0 0 1-38.252483-46.501588 136.87673 136.87673 0 0 1-10.366131-53.582677 103.515308 103.515308 0 0 1 10.366131-45.187571 25.477322 25.477322 0 0 0-5.54807-30.368383 14.600184 14.600184 0 0 1 0-16.790213 87.601107 87.601107 0 0 1 18.177229-23.871301l1.095014-0.657009a85.411079 85.411079 0 0 0 24.893315-38.106481 84.170064 84.170064 0 0 1 32.996417-43.289547 27.813351 27.813351 0 0 0 15.549196-23.214294v-9.052114a58.400738 58.400738 0 0 0-21.462271-44.895567 87.601107 87.601107 0 0 0-50.443637-20.002253 155.564966 155.564966 0 0 1-82.710046-32.339409 71.686906 71.686906 0 0 1-27.521347-56.502714zM75.263951 822.999078v-876.01107h1022.012915V822.999078h-1022.012915z"  horiz-adv-x="1174" />

    
    <glyph glyph-name="left_dav_comm" unicode="&#58919;" d="M161.2368 576h704a60.608 60.608 0 0 0 60.16-30.72v-174.912a36.352 36.352 0 0 0-33.6-38.4h-0.96l-25.6-11.968v-384a101.504 101.504 0 0 0-64-64h-576a100.352 100.352 0 0 0-64 64V320l-27.84 11.84a36.736 36.736 0 0 0-34.112 38.4V545.28A63.36 63.36 0 0 0 161.2368 576z m384-640V320h-64v-384h64z m-128 0V320h-192v-384h128m256 384v-384h192V320h-192zM514.2608 815.616a78.08 78.08 0 0 0 44.8-14.784A150.464 150.464 0 0 0 588.3728 855.04 115.2 115.2 0 0 0 673.8768 895.296a113.856 113.856 0 0 0 85.504-40.256 151.296 151.296 0 0 0 0-194.816 111.872 111.872 0 0 0-85.504-40.256H351.5728A56.64 56.64 0 0 0 289.2368 640a229.12 229.12 0 0 0-58.816 117.632A146.432 146.432 0 0 0 265.9408 855.04a110.4 110.4 0 0 0 170.496 0 140.8 140.8 0 0 0 29.824-56.128 79.104 79.104 0 0 0 48 16.704z m32-61.824a41.6 41.6 0 0 1-32 15.36 42.304 42.304 0 0 1-32-15.36 54.4 54.4 0 0 1-13.44-36.416 57.024 57.024 0 0 1 13.44-36.352 44.032 44.032 0 0 1 32-15.104 41.216 41.216 0 0 1 30.72 14.272l0.96 0.832a56.768 56.768 0 0 1 13.504 36.352 54.08 54.08 0 0 1-13.504 36.416z m47.552 0.512a99.84 99.84 0 0 0 6.4-36.928 108.416 108.416 0 0 0-12.8-51.2h86.976a74.624 74.624 0 0 1 56.64 26.816 100.736 100.736 0 0 1 0 129.472 73.728 73.728 0 0 1-113.344 0 98.88 98.88 0 0 1-23.552-64.576v-3.328zM441.3648 665.92a111.296 111.296 0 0 0-12.8 51.2 112.704 112.704 0 0 0 4.288 31.488 25.6 25.6 0 0 0-1.408 8.768 99.904 99.904 0 0 1-23.04 64.576 76.8 76.8 0 0 1-56.704 26.56 74.496 74.496 0 0 1-56.704-26.56 100.736 100.736 0 0 1 0-129.472 73.664 73.664 0 0 1 56.704-26.816h89.6zM865.2368 512h-704v-128h704V512z"  horiz-adv-x="1024" />

    
    <glyph glyph-name="left_dav_comm_sel" unicode="&#58920;" d="M161.2368 576h704a60.672 60.672 0 0 0 60.224-30.72v-174.912a36.352 36.352 0 0 0-33.664-38.4h-0.96l-25.6-11.968v-384a101.504 101.504 0 0 0-64-64h-576a100.352 100.352 0 0 0-64 64V320l-27.84 11.84a36.736 36.736 0 0 0-34.112 38.4V545.28A63.36 63.36 0 0 0 161.2368 576z m353.024 239.616a78.08 78.08 0 0 0 44.8-14.784A151.488 151.488 0 0 0 588.3728 855.04 115.2 115.2 0 0 0 673.8768 895.296a113.856 113.856 0 0 0 85.504-40.256 151.296 151.296 0 0 0 0-194.816 111.872 111.872 0 0 0-85.504-40.256H351.5728A56.64 56.64 0 0 0 289.2368 640a229.12 229.12 0 0 0-58.816 117.632A146.432 146.432 0 0 0 265.9408 855.04a110.4 110.4 0 0 0 170.496 0 140.8 140.8 0 0 0 29.824-56.128 79.104 79.104 0 0 0 48 16.704z m32-61.824a41.472 41.472 0 0 1-32 15.36 42.304 42.304 0 0 1-32-15.36 54.4 54.4 0 0 1-13.44-36.416 57.024 57.024 0 0 1 13.44-36.352 44.032 44.032 0 0 1 32-15.104 41.216 41.216 0 0 1 30.72 14.272l0.96 0.832a56.768 56.768 0 0 1 13.504 36.352 54.08 54.08 0 0 1-13.504 36.416z m47.616 0.512a101.184 101.184 0 0 0 6.4-36.928 108.416 108.416 0 0 0-12.8-51.2h86.976a74.624 74.624 0 0 1 56.64 26.816 100.736 100.736 0 0 1 0 129.472 73.728 73.728 0 0 1-113.344 0 98.816 98.816 0 0 1-23.488-64.576v-3.328zM441.3648 665.92a111.296 111.296 0 0 0-12.8 51.2 115.2 115.2 0 0 0 4.288 31.488 27.072 27.072 0 0 0-1.408 8.768 99.904 99.904 0 0 1-23.04 64.576 76.8 76.8 0 0 1-56.704 26.56 74.496 74.496 0 0 1-56.704-26.56 100.928 100.928 0 0 1 0-129.472 73.664 73.664 0 0 1 56.704-26.816h89.6zM417.2368 320h64v-384h-64zM545.2368 320h64v-384h-64z"  horiz-adv-x="1024" />

    
    <glyph glyph-name="left_dav_marke" unicode="&#58921;" d="M949.962548 91.757221V676.023679L146.596169 383.89045a38.050353 38.050353 0 0 0-3.724699-15.044861h-53.022181v29.213323h53.022181c5.039298 0-1.387633-12.707795 3.724699-14.606662 270.223237-112.83646 551.547536-213.257257 821.551672-324.998217z m72.083874-102.976963a12.926895 12.926895 0 0 1 3.578632-9.49433 9.640397 9.640397 0 0 1 8.252764-4.308965h34.471721v-0.4382a9.71343 9.71343 0 0 1 7.30333 3.286499l1.3146 1.460666A230.274018 230.274018 0 0 1 1096.029162 18.723914V749.056986a423.593182 423.593182 0 0 1-18.696527 39.291919l-0.657299 1.022467a12.269596 12.269596 0 0 1-8.325797 3.724698h-34.471721a10.297696 10.297696 0 0 1-7.303331-2.556166l-1.241566-1.168532a17.527994 17.527994 0 0 1-3.578632-9.129164V-11.219742zM292.662783 237.823836v-73.033308a59.814279 59.814279 0 0 1 16.432494-31.404322 47.179516 47.179516 0 0 1 23.297625-24.100991l223.408887-93.117467a30.089723 30.089723 0 0 0 5.477498-1.752799A23.005492 23.005492 0 0 1 584.796012 18.723914l5.769631-1.825833A238.745881 238.745881 0 0 1 657.829319 18.723914c0.584266 2.190999-0.6573-1.752799 0 0v73.033307L322.533406 217.739676z m418.846017-181.852935l-14.606662-46.010984v-1.752799a146.577848 146.577848 0 0 0-68.359175-85.156836v0.730333a115.976892 115.976892 0 0 0-98.887098-5.915698l-1.3146 0.803366-226.403252 93.4096a142.122816 142.122816 0 0 0-74.055773 78.145639 174.330504 174.330504 0 0 0-4.820199 114.662292l15.336995 48.12895-103.049997 42.724484h-57.112046a75.07824 75.07824 0 0 0-55.286213 26.291991 96.184866 96.184866 0 0 0-22.932459 63.538977v-3.286499a92.5332 92.5332 0 0 0 22.932459 62.735611l3.870765 4.747165a70.038942 70.038942 0 0 0 51.123315 21.544826L146.596169 456.923757l803.366379 292.133229a419.649383 419.649383 0 0 0 12.415662 112.61736l3.213465 3.286498a91.802867 91.802867 0 0 0 68.286143 31.039156h34.471721a96.476999 96.476999 0 0 0 71.499607-34.325654l3.140433-3.286499a126.420655 126.420655 0 0 0 26.876257-78.145639V-11.219742a130.07232 130.07232 0 0 0-30.01669-83.25797l-3.505598-3.286499a95.673632 95.673632 0 0 0-67.994009-30.235789h-34.471721a95.454532 95.454532 0 0 0-71.499608 33.522288 120.212824 120.212824 0 0 0-27.460524 57.696313l-223.408886 92.7523zM965.591675 864.960844a40.387419 40.387419 0 0 0 60.033379-3.286498l-60.033379 3.286498z"  horiz-adv-x="1171" />

    
    <glyph glyph-name="left_dav_marke_sel" unicode="&#58925;" d="M292.964863 237.823836v-73.033308a60.909778 60.909778 0 0 1 16.432494-31.404322 47.179516 47.179516 0 0 1 23.297625-24.100991l223.408887-93.117467a30.089723 30.089723 0 0 0 5.477498-1.752799A23.005492 23.005492 0 0 1 585.098092 18.723914l5.769631-1.825833A238.745881 238.745881 0 0 1 658.131399 18.723914c0.584266 2.190999-0.6573-1.752799 0 0v73.033307L322.835486 217.739676z m418.91905-181.852935l-14.606661-46.010984v-1.752799A146.577848 146.577848 0 0 0 628.918076-76.949718v0.730333a115.976892 115.976892 0 0 0-98.887098-5.915698l-1.314599 0.803366-226.403253 93.4096a142.414949 142.414949 0 0 0-74.055773 78.145639 174.330504 174.330504 0 0 0-4.820198 114.662292l15.336994 48.12895-103.049996 42.724484h-57.112047a74.786107 74.786107 0 0 0-55.21318 26.291991 95.892732 95.892732 0 0 0-23.005492 63.538977v-3.286499a92.241067 92.241067 0 0 0 23.005492 62.735611l3.797732 4.747165a70.038942 70.038942 0 0 0 51.123315 21.544826L146.898249 456.923757l803.366379 292.133229a419.649383 419.649383 0 0 0 12.415662 112.61736l3.213465 3.286498a91.802867 91.802867 0 0 0 68.286143 31.039156h34.471721a96.476999 96.476999 0 0 0 71.499607-34.325654l3.140433-3.286499a126.420655 126.420655 0 0 0 26.876257-78.145639V-11.219742a130.07232 130.07232 0 0 0-30.01669-83.25797l-3.505598-3.286499a95.673632 95.673632 0 0 0-67.994009-30.235789h-34.471721a95.600599 95.600599 0 0 0-71.499608 33.522288 120.212824 120.212824 0 0 0-27.460524 57.696313l-223.335853 92.7523zM965.893755 864.960844a40.387419 40.387419 0 0 0 60.033379-3.286498l-60.033379 3.286498zM950.264628 749.056986h73.033307v-803.366379h-73.033307z"  horiz-adv-x="1171" />

    
    <glyph glyph-name="left_dav_mess" unicode="&#58928;" d="M767.988363 127.984481H256.019401v-63.99612h511.968962v63.99612zM639.996122 895.937924H128.02716a61.308283 61.308283 0 0 1-63.99612-63.99612v-895.945684c0-61.884248 6.399612-63.99612 63.99612-63.99612l726.547953 2.239864a99.321979 99.321979 0 0 1 72.955577 31.99806l1.407915 1.15193a116.856916 116.856916 0 0 1 30.590145 79.099205L959.976723 575.957323z m0-63.99612l255.984481-255.984481H639.996122V831.941804z m255.984481-831.949564v-63.99612H128.02716V831.941804h447.972842v-319.980602h319.980601v-511.968962z m-127.99224 255.984481H256.019401v-63.99612h511.968962v63.99612z m0 127.992241H256.019401v-63.99612h511.968962V383.968962z"  horiz-adv-x="1024" />

    
    <glyph glyph-name="left_dav_mess_sel" unicode="&#58929;" d="M958.717525-13.597655a116.638014 116.638014 0 0 0-30.532843-78.951032l-1.405277-1.149772a99.135924 99.135924 0 0 0-72.818913-31.93812L128.773541-128c-57.488616 0-63.87624 2.107916-63.87624 63.87624v894.267357a61.193438 61.193438 0 0 0 63.87624 63.87624h511.009919l319.381198-319.381199zM639.78346 830.143597v-255.504959h255.504959zM767.535939 127.504959H256.526021v-63.87624h511.009918v63.87624z m0 127.75248H256.526021v-63.87624h511.009918v63.87624z m0 127.752479H256.526021v-63.87624h511.009918v63.87624z"  horiz-adv-x="1024" />

    
    <glyph glyph-name="left_bottom_set" unicode="&#58931;" d="M1022.174764 480.864865a988.598906 988.598906 0 0 1-37.608357 110.363124 105.184547 105.184547 0 0 0-120.550489 166.138948A155.187531 155.187531 0 0 1 771.225999 821.717128a107.901177 107.901177 0 0 0-195.257835 73.773504H445.994362a112.82507 112.82507 0 0 0-203.322832-73.773504 136.850274 136.850274 0 0 1-83.536395-73.773503c60.784613-73.433925 5.603051-186.768363-120.295805-156.715636a772.541867 772.541867 0 0 1-37.014094-110.363124 98.562759 98.562759 0 0 0 0-193.305256 758.109766 758.109766 0 0 1 37.014094-110.872492 105.099652 105.099652 0 0 0 120.295805-166.138949 159.85674 159.85674 0 0 1 92.789919-64.095507 107.391809 107.391809 0 0 0 194.069308-73.943293h129.973802a113.419333 113.419333 0 0 0 204.17178 73.943293 134.218538 134.218538 0 0 1 83.536395 73.688609c-61.293981 73.179241-5.603051 186.768363 120.550489 156.545847a964.488808 964.488808 0 0 1 37.608357 110.872492A97.798707 97.798707 0 0 0 1022.174764 480.864865zM512.042447 124.901343a261.900182 261.900182 0 0 0-252.816448 194.239098 249.42066 249.42066 0 0 0-8.064998 64.944454 260.711656 260.711656 0 0 0 517.008788 46.267617 251.458133 251.458133 0 0 0 4.49942-46.267617 260.032499 260.032499 0 0 0-260.626762-259.183552z"  horiz-adv-x="1024" />

    
    <glyph glyph-name="left_dav_open" unicode="&#58932;" d="M0 896h1126.4v-204.8H0V896z m716.8-614.4H0V486.4h716.8v-204.8z m204.8 307.2l307.2-204.8-307.2-204.8V588.8z m204.8-716.8H0V76.8h1126.4v-204.8z"  horiz-adv-x="1228" />

    
    <glyph glyph-name="left_dav_close" unicode="&#58933;" d="M102.4-128V76.8h1126.4v-204.8H102.4z m409.6 614.4h716.8v-204.8H512V486.4zM307.2 179.2L0 384l307.2 204.8v-409.6zM102.4 896h1126.4v-204.8H102.4V896z"  horiz-adv-x="1228" />

    
    <glyph glyph-name="left_pop_prod" unicode="&#58934;" d="M0-128h448V320H0v-448z m128 320h192v-192H128v192zM0 448h448V896H0v-448z m128 320h192v-192H128V768zM576 896v-448h448V896H576z m320-320h-192V768h192v-192zM576-128h448V320H576v-448z m128 320h192v-192h-192v192z"  horiz-adv-x="1024" />

    
    <glyph glyph-name="left_dav_lab_sel1" unicode="&#58936;" d="M992 896H537.6c-12.8 0-19.2-6.4-25.6-12.8L12.8 390.4c-12.8-12.8-19.2-38.4 0-51.2l454.4-448c12.8-12.8 38.4-12.8 57.6 0L1024 384c6.4 6.4 12.8 19.2 12.8 25.6v448c-6.4 19.2-19.2 38.4-44.8 38.4z m-211.2-364.8c-64 0-115.2 51.2-121.6 115.2 0 64 51.2 115.2 115.2 115.2s115.2-51.2 121.6-115.2c6.4-64-51.2-115.2-115.2-115.2z"  horiz-adv-x="1036" />

    
    <glyph glyph-name="left_dav_ove_sel" unicode="&#58937;" d="M170.666667 42.666667h1024c42.666667 17.066667 68.266667 42.666667 85.333333 85.333333V810.666667c-17.066667 42.666667-42.666667 68.266667-85.333333 85.333333H170.666667c-42.666667-17.066667-68.266667-42.666667-85.333334-85.333333v-682.666667c17.066667-42.666667 42.666667-68.266667 85.333334-85.333333z m768 597.333333h85.333333v-426.666667h-85.333333V640zM768 554.666667h85.333333v-341.333334H768V554.666667zM597.333333 384h85.333334v-170.666667H597.333333V384zM426.666667 298.666667h85.333333v-85.333334H426.666667V298.666667zM1322.666667-34.133333H42.666667c-25.6 0-42.666667-17.066667-42.666667-42.666667s17.066667-51.2 42.666667-51.2h1280c25.6 0 42.666667 17.066667 42.666666 42.666667s-17.066667 51.2-42.666666 51.2z"  horiz-adv-x="1365" />

    
    <glyph glyph-name="topdav_news1" unicode="&#58939;" d="M1046.958487-127.960506H123.236119A120.237496 120.237496 0 0 0 0-10.941045V778.940314A120.164359 120.164359 0 0 0 123.236119 895.959775h923.576093A120.38377 120.38377 0 0 0 1170.194606 778.940314v-789.881359a120.237496 120.237496 0 0 0-123.236119-117.019461zM1023.92028 18.31382V615.259343l-399.914006-334.968206a63.92188 63.92188 0 0 0-77.964216 0L146.274326 615.259343V18.31382h877.645954zM944.127636 749.685449H226.213245L585.097303 457.136797z"  horiz-adv-x="1170" />

    
    <glyph glyph-name="data_btn_comm" unicode="&#58940;" d="M512 896a512 512 0 1 1 512-512A512.768 512.768 0 0 1 512 896z m195.072-604.16c38.912 0 55.296-13.824 55.296-38.7584a47.36 47.36 0 0 0-55.296-44.2368h-132.608v-5.5808c0-55.3472-19.456-82.9952-60.928-82.9952-38.912 0-55.296 27.648-55.296 82.9952v8.3456H319.488a48.4352 48.4352 0 0 0-57.856 44.2368 49.5104 49.5104 0 0 0 60.928 38.7584H460.8v66.56H322.56a50.688 50.688 0 0 0-58.368 49.7664c0 24.9344 19.456 38.7584 58.368 38.7584h99.328L347.136 568.7296a49.6128 49.6128 0 0 0 83.456 49.8176c27.648-47.0528 82.944-138.24 82.944-138.24s63.488 99.6352 93.696 149.4528c25.088 47.0528 111.104-8.2944 83.456-58.112l-83.456-124.5696h99.84c38.912 0 55.296-13.824 55.296-38.7072a51.2 51.2 0 0 0-55.296-49.8688h-132.608v-66.56h132.608z"  horiz-adv-x="1024" />

    
    <glyph glyph-name="data_btn_cust" unicode="&#58941;" d="M0.005632-128a516.8128 516.8128 0 0 0 430.7456 512L512.005632 301.7216 593.311232 384A516.8128 516.8128 0 0 0 1024.005632-128H0.005632z m512 429.3632L424.351232 34.816 512.005632-53.9648l87.7056 88.6272zM512.005632 384a256 256 0 1 0 256 256 256 256 0 0 0-256-256z"  horiz-adv-x="1024" />

    
    <glyph glyph-name="data_btn_deal" unicode="&#58942;" d="M686.07016 627.188295a262.959124 262.959124 0 0 1 110.078293 107.211138 78.795579 78.795579 0 0 1-39.935381 114.379027 98.456074 98.456074 0 0 1-62.975024 1.587175 198.345726 198.345726 0 0 1-45.055301-20.479682 188.054685 188.054685 0 0 0-28.159564-14.540575 22.937244 22.937244 0 0 0-5.11992-1.484777 67.173359 67.173359 0 0 0-18.431715 24.831615 140.234626 140.234626 0 0 1-25.087611 35.020257A75.46763 75.46763 0 0 1 516.600786 895.932929a83.301109 83.301109 0 0 1-55.295143-20.172487 155.543189 155.543189 0 0 1-27.135579-32.716293 89.189018 89.189018 0 0 0-19.967691-23.295639 11.059029 11.059029 0 0 1-2.047968 0.819187 184.982733 184.982733 0 0 0-25.087611 15.359762 157.181564 157.181564 0 0 1-53.759167 25.599603 88.421029 88.421029 0 0 1-75.262833-17.202933c-43.519325-32.716293-41.983349-80.894746-7.167889-129.585191a402.937754 402.937754 0 0 1 91.134587-85.400277C179.198016 549.723895 51.2 363.665979 51.2 211.450739c0-189.437064 207.868778-339.34834 460.792858-339.348341s460.792858 150.116073 460.792857 339.348341c0 151.088858-125.950048 335.047607-286.715555 415.737556z m-61.439048-435.193255a109.310306 109.310306 0 0 0-87.550643-100.196847v-21.91326a25.599603 25.599603 0 0 0-50.687214 0v20.479682a109.617501 109.617501 0 0 0-93.694548 108.951912 23.551635 23.551635 0 0 0 13.311793 20.070089 27.289177 27.289177 0 0 0 25.599604-0.819188 22.886045 22.886045 0 0 0 11.775817-20.889276 62.616629 62.616629 0 0 1 62.975024-62.667829 63.999008 63.999008 0 0 1 68.094945 58.418295 63.077422 63.077422 0 0 1-63.487016 62.667829h-2.559961a18.994906 18.994906 0 0 0-2.55996 0 106.545549 106.545549 0 0 0-107.006341 106.033556A105.265568 105.265568 0 0 0 486.393255 458.742905v20.838077a25.599603 25.599603 0 0 0 50.687214 0v-21.606065a103.627194 103.627194 0 0 0 83.454706-103.012803 22.118057 22.118057 0 0 0-13.311793-19.762894 26.879583 26.879583 0 0 0-25.087612 0.819188 22.374053 22.374053 0 0 0-11.775817 20.479682 55.807135 55.807135 0 0 1-35.327452 52.837581 64.562199 64.562199 0 0 1-66.558969-10.239841 52.735183 52.735183 0 0 1-15.359762-60.466263 60.67106 60.67106 0 0 1 54.783151-36.249038h2.559961a20.889276 20.889276 0 0 0 2.55996 0 110.641485 110.641485 0 0 0 111.61427-110.539087z"  horiz-adv-x="1024" />

    
    <glyph glyph-name="data_btn_dist" unicode="&#58943;" d="M886.960678 145.816057a1204.336778 1204.336778 0 0 1-114.901027 46.625762 233.077629 233.077629 0 0 0-95.861747 43.55491 87.007459 87.007459 0 0 0-30.299068 61.41703 119.558485 119.558485 0 0 0 8.598384 52.306837c3.531479 8.291299 45.806868 41.917123 54.712337 59.728062 3.480298 7.574767 16.736141 45.397421 19.858173 57.527285a68.633531 68.633531 0 0 1 30.350249 31.373866 109.885303 109.885303 0 0 1 9.007831 34.035271 62.389466 62.389466 0 0 1-15.814885 58.44854 876.216295 876.216295 0 0 1-22.161311 155.180363 232.002831 232.002831 0 0 1-36.645495 71.909106 226.782383 226.782383 0 0 1-117.715974 71.039031 202.573837 202.573837 0 0 1-54.25171 6.960597A228.317809 228.317809 0 0 1 431.399858 877.65115a208.561998 208.561998 0 0 1-93.60979-73.649255 226.219394 226.219394 0 0 1-29.83844-66.535116 502.084221 502.084221 0 0 1-15.354258-146.889063 127.952146 127.952146 0 0 1-19.039279-43.606091 78.460256 78.460256 0 0 1 3.633841-30.96442 79.842139 79.842139 0 0 1 11.771597-26.562865 45.090336 45.090336 0 0 1 26.665228-21.342418s19.09046-54.609976 20.472343-57.527285a149.806372 149.806372 0 0 1 43.861996-47.547017 56.913114 56.913114 0 0 0 15.354257-37.464389s-2.814947-49.389528-4.555096-54.507614a108.656962 108.656962 0 0 0-47.495837-49.696613 189.676261 189.676261 0 0 0-59.267434-26.562866c-23.031386-6.090522-121.605719-41.456495-142.845776-49.287166a178.365291 178.365291 0 0 1-55.633593-30.094345 94.019237 94.019237 0 0 1-29.377812-57.117838 223.302085 223.302085 0 0 1-4.094469-78.409075 81.889373 81.889373 0 0 1 15.814885-49.747794 204.723433 204.723433 0 0 1 51.180859-16.992045 2133.320538 2133.320538 0 0 1 412.005909-40.944687 1410.697999 1410.697999 0 0 1 401.104387 53.176912 70.015414 70.015414 0 0 1 28.047111 14.842449 217.876914 217.876914 0 0 1 13.102299 78.460256 199.042358 199.042358 0 0 1-9.519639 57.936731 168.896833 168.896833 0 0 1-76.771288 68.889436z m0 0"  horiz-adv-x="1024" />

    
    <glyph glyph-name="data_btn_order" unicode="&#58945;" d="M937.966626-127.987712H85.507512a33.842371 33.842371 0 0 0-34.30316 35.839122V860.148078A33.842371 33.842371 0 0 0 85.507512 895.9872h852.459114a33.944768 33.944768 0 0 0 34.815147-35.839122v-952.296668a33.944768 33.944768 0 0 0-34.815147-35.839122zM388.092098 674.962215a27.237733 27.237733 0 0 1-40.447009 0l-120.829039-125.436926-40.44701 41.829375a26.776944 26.776944 0 0 1-39.935021 0 29.183285 29.183285 0 0 1 0-41.829375l60.41452-62.718464a25.138584 25.138584 0 0 1 19.967511-8.95978 32.511203 32.511203 0 0 1 20.479498 8.95978l140.79655 146.377214a29.132086 29.132086 0 0 1 0 41.778176z m0-350.19942a27.34013 27.34013 0 0 1-40.447009 0l-120.829039-125.436926-40.44701 41.829375a26.776944 26.776944 0 0 1-39.935021 0 29.183285 29.183285 0 0 1 0-41.829375l60.41452-62.718464a24.984988 24.984988 0 0 1 19.967511-8.95978 32.25521 32.25521 0 0 1 20.479498 8.95978l140.79655 146.326015a29.183285 29.183285 0 0 1 0 41.829375z m440.8212 272.582122H454.13848A29.900067 29.900067 0 0 1 454.13848 537.595981h374.774818a29.900067 29.900067 0 0 1 0 59.748936z m0-358.391219H454.13848a29.900067 29.900067 0 0 1 0-59.748937h374.774818a29.900067 29.900067 0 0 1 0 59.748937z"  horiz-adv-x="1024" />

    
    <glyph glyph-name="data_btn_total" unicode="&#58946;" d="M554.141538 267.421538H748.307692a35.170462 35.170462 0 0 0 29.144616-9.255384 43.677538 43.677538 0 0 0 0-55.138462 35.446154 35.446154 0 0 0-29.144616-8.704h-194.166154V37.415385a66.323692 66.323692 0 0 0-7.876923-37.691077 45.922462 45.922462 0 0 0-35.052307-9.570462 47.261538 47.261538 0 0 0-33.476923 9.570462 52.145231 52.145231 0 0 0-10.24 37.691077v156.632615H275.692308a35.446154 35.446154 0 0 0-29.144616 8.704 31.507692 31.507692 0 0 0-9.846154 27.372308 32.610462 32.610462 0 0 0 36.627693 37.139692h194.166154v109.174154H275.692308a35.446154 35.446154 0 0 0-29.144616 8.704 31.507692 31.507692 0 0 0-9.846154 27.569231 32.610462 32.610462 0 0 0 36.627693 37.179077h142.178461L330.830769 581.592615 246.547692 713.294769a37.021538 37.021538 0 0 0 8.27077 56.280616 38.872615 38.872615 0 0 0 28.356923 7.876923 44.504615 44.504615 0 0 0 25.993846-22.567385l192.984615-305.073231h22.449231L617.944615 600.615385l93.735385 150.843077a40.251077 40.251077 0 0 0 29.538462 25.245538 61.124923 61.124923 0 0 0 28.356923-9.570462 30.601846 30.601846 0 0 0 17.723077-22.528 54.350769 54.350769 0 0 0-11.815385-32.295384l-165.809231-262.498462h138.24a36.036923 36.036923 0 0 0 29.538462-9.294769 33.595077 33.595077 0 0 0 9.846154-27.884308 31.507692 31.507692 0 0 0-10.24-27.56923 35.091692 35.091692 0 0 0-29.144616-8.704h-193.772308v-109.174154zM278.055385 777.846154h4.726153a43.323077 43.323077 0 0 0 25.993847-22.567385l193.378461-305.427692h22.449231l93.341538 150.803692 93.735385 150.843077a43.716923 43.716923 0 0 0 28.750769 25.245539 64.236308 64.236308 0 0 0 28.750769-9.570462 32.492308 32.492308 0 0 0 17.723077-22.528 56.910769 56.910769 0 0 0-11.421538-32.295385l-165.809231-262.498461h138.24a36.036923 36.036923 0 0 0 29.538462-9.294769 33.595077 33.595077 0 0 0 9.846154-27.884308 31.507692 31.507692 0 0 0-10.24-27.569231 35.091692 35.091692 0 0 0-29.144616-8.704h-193.772308v-109.174154H748.307692a35.170462 35.170462 0 0 0 29.144616-9.255384 43.677538 43.677538 0 0 0 0-55.138462 35.446154 35.446154 0 0 0-29.144616-8.704h-194.166154V37.415385a66.323692 66.323692 0 0 0-7.876923-37.691077 45.922462 45.922462 0 0 0-35.052307-9.570462 47.261538 47.261538 0 0 0-33.476923 9.570462 52.145231 52.145231 0 0 0-10.24 37.691077v156.632615H275.692308a35.446154 35.446154 0 0 0-29.144616 8.704 31.507692 31.507692 0 0 0-9.846154 27.372308 32.610462 32.610462 0 0 0 36.627693 37.139692h194.166154v109.174154H275.692308a35.446154 35.446154 0 0 0-29.144616 8.704 31.507692 31.507692 0 0 0-9.846154 27.569231 32.610462 32.610462 0 0 0 36.627693 37.179077h142.178461L330.830769 581.592615 246.547692 713.294769a37.021538 37.021538 0 0 0 8.27077 56.280616 43.086769 43.086769 0 0 0 23.630769 8.310153"  horiz-adv-x="1024" />

    
    <glyph glyph-name="left_dav_memb_sel" unicode="&#58947;" d="M1090.036069 888.737589h-1016.737589c-43.574468 0-72.624113-29.049645-72.624113-72.624114v-871.489362c0-43.574468 29.049645-72.624113 72.624113-72.624113h1016.737589c43.574468 0 72.624113 29.049645 72.624113 72.624113v871.489362c0 43.574468-29.049645 72.624113-72.624113 72.624114z m-246.921986-798.865249c-14.524823 0-29.049645 14.524823-29.049645 29.049646 0 21.787234-7.262411 43.574468-29.049646 58.099291-21.787234 14.524823-50.836879 21.787234-79.886525 29.049645-21.787234 0-36.312057 7.262411-50.836879 21.787234-14.524823 7.262411-21.787234 21.787234-21.787234 43.574468v7.262411c0 7.262411 7.262411 21.787234 14.524823 21.787235 14.524823 14.524823 21.787234 29.049645 29.049645 43.574468 7.262411 14.524823 14.524823 29.049645 21.787234 36.312056 14.524823 7.262411 21.787234 14.524823 21.787234 21.787234v14.524823c0 7.262411-7.262411 14.524823-7.262411 21.787234v14.524823c7.262411 14.524823 7.262411 21.787234 7.262411 36.312057v29.049645c0 21.787234-14.524823 43.574468-21.787234 58.099291-7.262411 0-14.524823 7.262411-21.787234 7.262411h-29.049645L625.241743 605.503546c-7.262411 7.262411-14.524823 7.262411-21.787234 7.262411h-43.574468c-21.787234 0-50.836879-7.262411-72.624114-14.524822-14.524823-14.524823-29.049645-29.049645-36.312057-43.574468-7.262411-21.787234-14.524823-36.312057-7.262411-58.099291 0-14.524823 0-29.049645 7.262411-43.574468 7.262411-7.262411 0-21.787234-7.262411-29.049646v-14.524822c7.262411-14.524823 14.524823-21.787234 21.787234-29.049646 14.524823-7.262411 21.787234-21.787234 21.787234-36.312056 7.262411-14.524823 14.524823-36.312057 36.312057-43.574468 7.262411-7.262411 14.524823-14.524823 14.524822-21.787235v-7.262411c0-14.524823-7.262411-36.312057-21.787234-43.574468-14.524823-14.524823-29.049645-21.787234-50.836879-21.787234-29.049645-7.262411-58.099291-14.524823-79.886525-36.312057-14.524823-14.524823-29.049645-36.312057-29.049645-58.099291 0-14.524823-14.524823-29.049645-29.049646-29.049645s-29.049645 14.524823-29.049645 29.049645c0 36.312057 14.524823 72.624113 43.574468 94.411348 36.312057 36.312057 72.624113 50.836879 116.198582 50.836879 7.262411 0 7.262411 0 14.524822 7.262412-21.787234 14.524823-36.312057 36.312057-43.574468 58.099291 0 7.262411-7.262411 14.524823-7.262411 14.524822-14.524823 21.787234-29.049645 36.312057-36.312057 50.83688-7.262411 21.787234-7.262411 43.574468 0 58.09929-7.262411 14.524823-7.262411 36.312057-7.262411 50.83688 0 21.787234 0 50.836879 14.524823 72.624113 14.524823 29.049645 36.312057 58.099291 65.361702 72.624114 29.049645 14.524823 72.624113 29.049645 108.93617 29.049645h58.099291c21.787234 0 43.574468-14.524823 58.09929-29.049645 29.049645 0 50.836879-14.524823 72.624114-29.049646 7.262411-21.787234 21.787234-50.836879 29.049645-79.886524v-43.574468c0-14.524823-7.262411-21.787234-7.262411-36.312057 14.524823-21.787234 14.524823-43.574468 0-58.099291-7.262411-29.049645-21.787234-43.574468-36.312057-50.836879 0 0-7.262411-7.262411-7.262411-14.524823-7.262411-29.049645-21.787234-50.836879-43.574468-65.361702 0 0 7.262411-7.262411 14.524822-7.262412 43.574468 0 87.148936-21.787234 123.460993-43.574468 29.049645-21.787234 43.574468-58.099291 43.574468-94.411347 0-21.787234-14.524823-29.049645-29.049645-29.049646z"  horiz-adv-x="1257" />

    
    <glyph glyph-name="chan_pop_doubtsvg" unicode="&#58948;" d="M512-128a512 512 0 1 0 512 512 512 512 0 0 0-512-512zM512 822.857143a438.857143 438.857143 0 1 1 438.857143-438.857143 447.707429 447.707429 0 0 1-438.857143 438.857143z m47.323429-464.457143a141.238857 141.238857 0 0 1-32.914286-41.179429 109.129143 109.129143 0 0 1-12.873143-53.979428v-13.677714H427.593143v13.677714a171.154286 171.154286 0 0 0 15.286857 76.580571 425.764571 425.764571 0 0 0 91.574857 99.986286l13.604572 15.286857a93.622857 93.622857 0 0 1 21.942857 58.514286 91.794286 91.794286 0 0 1-23.332572 65.828571 107.300571 107.300571 0 0 1-146.285714-9.654857 137.581714 137.581714 0 0 1-21.942857-83.017143H293.302857a177.371429 177.371429 0 0 0 190.171429 190.171429 179.858286 179.858286 0 0 0 126.098285-42.715429 148.114286 148.114286 0 0 0 47.396572-115.273143A160.914286 160.914286 0 0 0 627.2 420.571429a737.792 737.792 0 0 0-67.876571-62.171429zM470.162286 205.970286a57.344 57.344 0 0 0 42.569143-16.091429 53.467429 53.467429 0 0 0 16.896-41.106286 56.539429 56.539429 0 0 0-16.896-41.910857 63.561143 63.561143 0 0 0-42.569143-16.091428 53.321143 53.321143 0 0 0-40.96 16.896 53.979429 53.979429 0 0 0-17.627429 41.106285 51.565714 51.565714 0 0 0 17.627429 41.106286 52.736 52.736 0 0 0 40.96 16.091429z"  horiz-adv-x="1024" />

    
    <glyph glyph-name="left_dav_data" unicode="&#58949;" d="M0-128v68.266667h1092.266667v-68.266667H0zM955.733333 759.466667h68.266667v-750.933334h-68.266667V759.466667z m-204.8 136.533333h68.266667v-887.466667h-68.266667V896zM546.133333 622.933333h68.266667v-614.4H546.133333V622.933333zM341.333333 418.133333h68.266667v-409.6H341.333333V418.133333zM136.533333 691.2h68.266667v-682.666667H136.533333V691.2z"  horiz-adv-x="1092" />

    
    <glyph glyph-name="left_dav_data_sel" unicode="&#58950;" d="M0-54.857143h1170.285714v-73.142857H0zM0 896v-877.714286h1170.285714V896H0z m219.428571-804.571429H146.285714V603.428571h73.142857v-512z m219.428572 0H365.714286V310.857143h73.142857v-219.428572z m219.428571 0H585.142857V530.285714h73.142857v-438.857143z m219.428572 0h-73.142857V822.857143h73.142857v-731.428572z m219.428571 0h-73.142857V676.571429h73.142857v-585.142858z"  horiz-adv-x="1170" />

    


  </font>
</defs>
</svg>
